<svg width="130" height="132" viewBox="0 0 130 132" fill="none" xmlns="http://www.w3.org/2000/svg">
<g filter="url(#filter0_d_21_76)">
<path d="M83 58H47V82H83V58Z" fill="#FFA733"/>
<path d="M61 46H47V58H61V46Z" fill="#FF9811"/>
<path d="M83 46H69V58H83V46Z" fill="#FF9811"/>
<path d="M58.38 107.52C47.9772 105.929 38.488 100.665 31.6312 92.6818C24.7742 84.6986 21.0028 74.5238 21 64H27L21.48 57.38L17 52L13.6 56.08L7 64H13C13.0025 76.4188 17.4477 88.4268 25.5322 97.8538C33.6166 107.281 44.8068 113.504 57.08 115.4L53 112L58.38 107.52Z" fill="#FF6243"/>
<path d="M117 64C116.997 51.5812 112.552 39.5732 104.468 30.1462C96.3834 20.7192 85.1932 14.4955 72.92 12.6L77 16L71.62 20.48C82.0228 22.071 91.512 27.3348 98.3688 35.318C105.226 43.3014 108.997 53.4762 109 64H103L108.52 70.62L113 76L116.4 71.92L123 64H117Z" fill="#FF6243"/>
<path d="M113 76L108.52 70.62C106.929 81.0228 101.665 90.512 93.6818 97.3688C85.6986 104.226 75.5238 107.997 65 108V102L58.38 107.52L53 112L57.08 115.4L65 122V116C77.4188 115.997 89.4268 111.552 98.8538 103.468C108.281 95.3834 114.504 84.1932 116.4 71.92L113 76Z" fill="#5AAAE7"/>
<path d="M72.92 12.6L65 6V12C52.5812 12.0025 40.5732 16.4477 31.1462 24.5322C21.7192 32.6166 15.4956 43.8068 13.6 56.08L17 52L21.48 57.38C23.0712 46.9772 28.3348 37.488 36.3182 30.6312C44.3014 23.7742 54.4762 20.0028 65 20V26L71.62 20.48L77 16L72.92 12.6Z" fill="#5AAAE7"/>
<path d="M69 58V62L65 60L61 62V58V46H69V58Z" fill="#EE8700"/>
<path d="M124.82 63.16C124.659 62.8128 124.403 62.519 124.08 62.3134C123.757 62.1078 123.383 61.999 123 62H118.96C118.431 49.5824 113.662 37.7212 105.448 28.3936C97.2338 19.066 86.071 12.8352 73.82 10.74L66.28 4.45996C65.9878 4.21652 65.6322 4.06148 65.2548 4.013C64.8776 3.96454 64.4944 4.02466 64.15 4.18632C63.8058 4.34798 63.5146 4.60446 63.311 4.9257C63.1072 5.24694 62.9994 5.61958 63 5.99996V10.04C50.5824 10.5691 38.7214 15.3382 29.3936 23.5522C20.066 31.7662 13.8353 42.929 11.74 55.18L5.46003 62.72C5.21659 63.0122 5.06155 63.3678 5.01307 63.7452C4.96461 64.1224 5.02473 64.5056 5.18639 64.85C5.34805 65.1942 5.60452 65.4854 5.92576 65.689C6.247 65.8928 6.61967 66.0006 7.00003 66H11.04C11.5692 78.4176 16.3382 90.2786 24.5522 99.6062C32.7662 108.934 43.929 115.165 56.18 117.26L63.72 123.54C64.0798 123.838 64.5328 124.001 65 124C65.2896 124 65.576 123.939 65.84 123.82C66.1872 123.659 66.481 123.402 66.6866 123.08C66.8922 122.757 67.001 122.382 67 122V117.96C79.4176 117.431 91.2786 112.662 100.606 104.448C109.934 96.2336 116.165 85.0708 118.26 72.82L124.54 65.28C124.783 64.9894 124.938 64.6358 124.987 64.2606C125.037 63.8852 124.979 63.5036 124.82 63.16ZM65 14C65.5304 14 66.0392 13.7892 66.4142 13.4142C66.7894 13.0391 67 12.5304 67 12V10.26L73.88 16L67 21.74V20C67 19.4695 66.7894 18.9608 66.4142 18.5857C66.0392 18.2107 65.5304 18 65 18C54.746 18.0539 44.7994 21.5072 36.7178 27.8188C28.6364 34.1306 22.8764 42.9444 20.34 52.88L18.54 50.72C18.3501 50.5098 18.1188 50.3408 17.8608 50.2238C17.6027 50.1068 17.3233 50.0442 17.04 50.04C20.109 39.6818 26.4286 30.5856 35.0652 24.0956C43.7018 17.6056 54.197 14.066 65 14ZM101.46 65.28L106.38 71.18C104.698 80.5676 99.8926 89.1114 92.7442 95.4248C85.5958 101.738 76.5236 105.451 67 105.96V102C67.0006 101.62 66.8928 101.247 66.689 100.926C66.4854 100.604 66.1944 100.348 65.85 100.186C65.5058 100.025 65.1224 99.9646 64.7452 100.013C64.368 100.061 64.0122 100.217 63.72 100.46L57.82 105.38C48.4324 103.698 39.8886 98.8924 33.5752 91.744C27.2618 84.5956 23.5492 75.5236 23.04 66H27C27.3804 66.0006 27.753 65.8928 28.0742 65.689C28.3956 65.4854 28.652 65.1942 28.8136 64.85C28.9754 64.5056 29.0354 64.1224 28.987 63.7452C28.9386 63.3678 28.7834 63.0122 28.54 62.72L23.62 56.82C25.3022 47.4322 30.1076 38.8886 37.256 32.5752C44.4044 26.2618 53.4764 22.5492 63 22.04V26C62.9994 26.3804 63.1072 26.753 63.311 27.0742C63.5146 27.3954 63.8058 27.652 64.15 27.8136C64.4944 27.9752 64.8776 28.0354 65.2548 27.987C65.6322 27.9384 65.9878 27.7834 66.28 27.54L72.18 22.62C81.5676 24.3022 90.1114 29.1074 96.4248 36.2558C102.738 43.4042 106.451 52.4764 106.96 62H103C102.62 61.9994 102.247 62.1072 101.926 62.3108C101.605 62.5146 101.348 62.8056 101.186 63.15C101.025 63.4942 100.965 63.8776 101.013 64.2548C101.062 64.632 101.217 64.9876 101.46 65.28ZM51.72 110.46C51.5028 110.647 51.3266 110.876 51.2026 111.134C51.0788 111.393 51.0098 111.674 51 111.96C40.6514 108.88 31.5664 102.556 25.0848 93.9214C18.603 85.2862 15.0677 74.7968 15 64C15 63.4696 14.7893 62.9608 14.4142 62.5858C14.0392 62.2106 13.5305 62 13 62H11.28L17 55.12L22.72 62H21C20.4696 62 19.9609 62.2106 19.5858 62.5858C19.2107 62.9608 19 63.4696 19 64C19.0544 74.2568 22.5104 84.2058 28.826 92.2878C35.1418 100.37 43.9604 106.128 53.9 108.66L51.72 110.46ZM65 114C64.4696 114 63.9608 114.211 63.5858 114.586C63.2108 114.961 63 115.47 63 116V117.74L56.12 112L63 106.26V108C63 108.53 63.2108 109.039 63.5858 109.414C63.9608 109.789 64.4696 110 65 110C75.254 109.946 85.2006 106.493 93.2822 100.181C101.364 93.8692 107.124 85.0554 109.66 75.12L111.46 77.28C111.647 77.4972 111.876 77.6734 112.134 77.7974C112.393 77.9212 112.674 77.9902 112.96 78C109.88 88.3486 103.557 97.4336 94.9214 103.915C86.2864 110.397 75.797 113.932 65 114ZM113 72.88L107.26 66H109C109.53 66 110.039 65.7892 110.414 65.4142C110.789 65.0392 111 64.5304 111 64C110.946 53.746 107.493 43.7994 101.181 35.7178C94.8694 27.6364 86.0556 21.8764 76.12 19.34L78.28 17.54C78.4972 17.3533 78.6734 17.1237 78.7974 16.8655C78.9212 16.6073 78.9902 16.3262 79 16.04C89.3486 19.1197 98.4336 25.4434 104.915 34.0786C111.397 42.7136 114.932 53.203 115 64C115 64.5304 115.211 65.0392 115.586 65.4142C115.961 65.7892 116.47 66 117 66H118.74L113 72.88Z" fill="black"/>
<path d="M83 44H47C46.4696 44 45.9608 44.2108 45.5858 44.5858C45.2108 44.9608 45 45.4696 45 46V82C45 82.5304 45.2108 83.0392 45.5858 83.4142C45.9608 83.7892 46.4696 84 47 84H83C83.5304 84 84.0392 83.7892 84.4142 83.4142C84.7892 83.0392 85 82.5304 85 82V46C85 45.4696 84.7892 44.9608 84.4142 44.5858C84.0392 44.2108 83.5304 44 83 44ZM63 48H67V58.76L65.9 58.22C65.622 58.0754 65.3134 57.9998 65 57.9998C64.6866 57.9998 64.378 58.0754 64.1 58.22L63 58.76V48ZM49 48H59V56H49V48ZM81 80H49V60H59V62C59.001 62.341 59.0892 62.676 59.2562 62.9732C59.423 63.2704 59.6632 63.5202 59.9538 63.6984C60.2444 63.8768 60.5756 63.978 60.9162 63.9922C61.257 64.0064 61.5956 63.9334 61.9 63.78L65 62.24L68.1 63.78C68.3794 63.9208 68.6872 63.996 69 64C69.3742 63.9998 69.7412 63.8958 70.06 63.7C70.3482 63.5198 70.5858 63.2692 70.7502 62.9718C70.9148 62.6744 71.0006 62.3398 71 62V60H81V80ZM81 56H71V48H81V56Z" fill="black"/>
<path d="M67 32H63V36H67V32Z" fill="black"/>
<path d="M50.7328 35.2876L47.2686 37.2874L49.2682 40.7516L52.7326 38.752L50.7328 35.2876Z" fill="black"/>
<path d="M38.2866 46.2694L36.2864 49.7336L39.7506 51.7336L41.7506 48.2696L38.2866 46.2694Z" fill="black"/>
<path d="M37 62H33V66H37V62Z" fill="black"/>
<path d="M39.7524 76.2662L36.288 78.266L38.2878 81.7302L41.752 79.7306L39.7524 76.2662Z" fill="black"/>
<path d="M49.267 87.2478L47.2672 90.712L50.7314 92.7118L52.7312 89.2474L49.267 87.2478Z" fill="black"/>
<path d="M67 92H63V96H67V92Z" fill="black"/>
<path d="M80.733 87.2468L77.2686 89.2466L79.2684 92.7108L82.7326 90.7112L80.733 87.2468Z" fill="black"/>
<path d="M90.2484 76.2692L88.2486 79.7334L91.713 81.733L93.7126 78.2688L90.2484 76.2692Z" fill="black"/>
<path d="M97 62H93V66H97V62Z" fill="black"/>
<path d="M91.7114 46.2682L88.2472 48.2678L90.2468 51.732L93.7112 49.7324L91.7114 46.2682Z" fill="black"/>
<path d="M79.2678 35.2876L77.268 38.752L80.7322 40.7516L82.732 37.2874L79.2678 35.2876Z" fill="black"/>
</g>
<defs>
<filter id="filter0_d_21_76" x="-3" y="0" width="136" height="136" filterUnits="userSpaceOnUse" color-interpolation-filters="sRGB">
<feFlood flood-opacity="0" result="BackgroundImageFix"/>
<feColorMatrix in="SourceAlpha" type="matrix" values="0 0 0 0 0 0 0 0 0 0 0 0 0 0 0 0 0 0 127 0" result="hardAlpha"/>
<feOffset dy="4"/>
<feGaussianBlur stdDeviation="2"/>
<feComposite in2="hardAlpha" operator="out"/>
<feColorMatrix type="matrix" values="0 0 0 0 0.807843 0 0 0 0 0.701961 0 0 0 0 0.701961 0 0 0 1 0"/>
<feBlend mode="normal" in2="BackgroundImageFix" result="effect1_dropShadow_21_76"/>
<feBlend mode="normal" in="SourceGraphic" in2="effect1_dropShadow_21_76" result="shape"/>
</filter>
</defs>
</svg>
