<?xml version="1.0" encoding="utf-8"?>
<!-- Generator: Adobe Illustrator 16.0.3, SVG Export Plug-In . SVG Version: 6.00 Build 0)  -->
<!DOCTYPE svg PUBLIC "-//W3C//DTD SVG 1.1//EN" "http://www.w3.org/Graphics/SVG/1.1/DTD/svg11.dtd">
<svg version="1.1" id="Capa_1" xmlns="http://www.w3.org/2000/svg" xmlns:xlink="http://www.w3.org/1999/xlink" x="0px" y="0px"
	 width="512px" height="512px" viewBox="0 0 512 512" enable-background="new 0 0 512 512" xml:space="preserve">
<g id="fondo_1_" display="none">
	<g id="fondo" display="inline">
		<rect width="512" height="512"/>
	</g>
</g>
<g>
	<g>
		<path fill-rule="evenodd" clip-rule="evenodd" fill="#FFFFFF" d="M464.018,383.802c-16.627,16.338-40.283,25.387-64.207,25.387
			c-51.362,0-91.644-42.025-91.644-91.349c0-27.43,11.096-53.118,31.222-69.463c3.654-9.337,5.559-20.135,9.06-31.228
			c1.892,0,5.534-5.541,5.534-9.047v-1.751c0-3.79,3.809-7.586,5.56-14.884c1.75-7.297,9.033-29.188,1.75-34.728
			c-1.75-1.751-5.559-1.751-7.31,3.79c0,0,9.203-54.869,1.751-78.8C339.389,23.36,198.429,6.728,198.429,43.502
			c-58.66,16.343-47.707,72.963-40.268,117.028c0,0-3.797-5.541-9.344,0c-7.296,5.546,0,21.891,3.784,30.938
			c1.763,5.547,3.513,11.094,5.56,12.845c0,2.039,0,2.039,0,3.79c0,5.546,1.75,9.047,5.392,9.047
			c7.297,27.438,10.952,51.368,31.081,65.963v25.681c-113.536,65.666-170.29,27.438-170.29,179.202h232.604h1.904h228.805
			C487.656,433.126,478.609,403.647,464.018,383.802z"/>
	</g>
	<g>
		<g id="marketplace2_1_">
			<g id="marketplace2">
				<path fill="#FFFFFF" d="M480.42,314.49h-6.587c-1.112-39.516-33.14-71.432-72.7-72.362v-7.201c0-1.017-0.824-1.841-1.842-1.841
					c-1.017,0-1.841,0.824-1.841,1.841v7.203c-39.501,0.997-71.461,32.887-72.572,72.36H317.3c-1.018,0-1.842,0.824-1.842,1.842
					c0,1.016,0.823,1.841,1.842,1.841h7.564c0.818,39.734,32.895,71.928,72.585,72.93v6.504c0,1.018,0.825,1.842,1.842,1.842
					c1.018,0,1.841-0.823,1.841-1.842v-6.502c39.751-0.936,71.895-33.153,72.715-72.932h6.573c1.017,0,1.841-0.825,1.841-1.841
					C482.261,315.314,481.437,314.49,480.42,314.49z M470.149,314.49h-33.01c-1.073-19.295-16.667-34.778-36.008-35.677v-33.003
					C438.662,246.738,469.038,277.005,470.149,314.49z M427.517,318.173h5.966c-0.791,17.528-14.851,31.659-32.351,32.561v-6.03
					c0-1.018-0.823-1.842-1.841-1.842c-1.017,0-1.842,0.824-1.842,1.842v6.021c-17.439-0.964-31.432-15.067-32.221-32.552h4.975
					c1.017,0,1.841-0.825,1.841-1.842s-0.824-1.842-1.841-1.842h-4.943c1.063-17.221,14.94-31.03,32.189-31.983v5.325
					c0,1.016,0.825,1.841,1.842,1.841c1.018,0,1.841-0.824,1.841-1.841v-5.333c17.31,0.891,31.253,14.728,32.319,31.991h-5.935
					c-1.019,0-1.842,0.824-1.842,1.842C425.675,317.348,426.498,318.173,427.517,318.173z M397.45,245.813v33.005
					c-19.281,0.961-34.809,16.419-35.88,35.672h-33.008C329.672,277.049,359.979,246.809,397.45,245.813z M328.547,318.173h32.998
					c0.794,19.515,16.435,35.27,35.905,36.24v33.005C359.789,386.418,329.364,355.878,328.547,318.173z M401.133,387.422v-33.003
					c19.53-0.908,35.238-16.688,36.034-36.246h32.998C469.347,355.92,438.852,386.488,401.133,387.422z"/>
			</g>
		</g>
		<circle fill-rule="evenodd" clip-rule="evenodd" fill="#FFFFFF" cx="398.667" cy="316.166" r="15.833"/>
	</g>
</g>
</svg>
