<?xml version="1.0" encoding="utf-8"?>
<!-- Generator: Adobe Illustrator 16.0.3, SVG Export Plug-In . SVG Version: 6.00 Build 0)  -->
<!DOCTYPE svg PUBLIC "-//W3C//DTD SVG 1.1//EN" "http://www.w3.org/Graphics/SVG/1.1/DTD/svg11.dtd">
<svg version="1.1" id="Capa_1" xmlns="http://www.w3.org/2000/svg" xmlns:xlink="http://www.w3.org/1999/xlink" x="0px" y="0px"
	 width="512px" height="512px" viewBox="0 0 512 512" enable-background="new 0 0 512 512" xml:space="preserve">
<g id="fondo_1_" display="none">
	<g id="fondo" display="inline">
		<rect width="512" height="512"/>
	</g>
</g>
<g id="buy">
	<g>
		<path fill="#FFFFFF" d="M312.852,220.04c-0.76-0.916-1.888-1.446-3.077-1.446h-87.238l-1.882-8.996
			c-0.271-1.297-1.167-2.375-2.392-2.88l-14.511-5.975c-2.041-0.841-4.381,0.133-5.222,2.176c-0.841,2.042,0.133,4.38,2.176,5.222
			l12.552,5.168l2.108,10.079c0.002,0.009,0.004,0.018,0.005,0.026l8.876,42.43c0.001,0.006,0.002,0.01,0.002,0.014l2.799,13.377
			c0.388,1.854,2.021,3.182,3.915,3.182h68.567c2.209,0,4-1.791,4-4s-1.791-4-4-4h-65.317l-1.124-5.371h68.719
			c1.926,0,3.576-1.371,3.932-3.264l7.966-42.449C313.924,222.162,313.611,220.955,312.852,220.04z M298.489,261.044h-67.073
			l-7.207-34.45h80.744L298.489,261.044z"/>
		<path fill="#FFFFFF" d="M245.189,240.591h39.263c2.209,0,4-1.791,4-4s-1.791-4-4-4h-39.263c-2.209,0-4,1.791-4,4
			S242.98,240.591,245.189,240.591z"/>
		<path fill="#FFFFFF" d="M282.176,246.532H247.75c-2.209,0-4,1.791-4,4s1.791,4,4,4h34.425c2.209,0,4-1.791,4-4
			S284.385,246.532,282.176,246.532z"/>
		<path fill="#FFFFFF" d="M248.019,286.52c-6.904,0-12.521,5.617-12.521,12.521s5.617,12.521,12.521,12.521
			c6.905,0,12.523-5.617,12.523-12.521C260.542,292.136,254.924,286.52,248.019,286.52z M248.019,303.561
			c-2.493,0-4.521-2.027-4.521-4.521s2.028-4.521,4.521-4.521c2.494,0,4.522,2.027,4.522,4.521
			C252.542,301.532,250.513,303.561,248.019,303.561z"/>
		<path fill="#FFFFFF" d="M282.161,286.52c-6.904,0-12.521,5.617-12.521,12.521s5.615,12.521,12.521,12.521
			s12.522-5.617,12.522-12.521C294.684,292.136,289.066,286.52,282.161,286.52z M282.161,303.561c-2.492,0-4.521-2.027-4.521-4.521
			s2.027-4.521,4.521-4.521s4.522,2.027,4.522,4.521C286.684,301.532,284.654,303.561,282.161,303.561z"/>
	</g>
	<g id="buy_1_">
		<path fill="#FFFFFF" d="M477.5,251.174h-17.886c-3.022-107.315-90.003-193.991-197.441-196.52V35.099c0-2.762-2.237-5-5-5
			c-2.761,0-5,2.238-5,5V54.66C144.896,57.365,58.1,143.975,55.08,251.174H34.5c-2.762,0-5,2.239-5,5c0,2.764,2.238,5,5,5h20.546
			c2.224,107.913,89.333,195.343,197.126,198.063v17.664c0,2.762,2.239,5,5,5c2.762,0,5-2.238,5-5v-17.66
			c107.953-2.539,195.25-90.037,197.479-198.066h17.85c2.762,0,5-2.237,5-5C482.5,253.413,480.262,251.174,477.5,251.174z
			 M449.608,251.174h-89.646c-2.916-52.4-45.264-94.449-97.789-96.89v-89.63C364.096,67.176,446.591,149.372,449.608,251.174z
			 M333.824,261.174h16.202c-2.146,47.604-40.329,85.981-87.854,88.43v-16.377c0-2.764-2.238-5-5-5c-2.761,0-5,2.236-5,5v16.354
			c-47.363-2.617-85.363-40.92-87.505-88.406h13.508c2.761,0,5-2.235,5-5c0-2.761-2.239-5-5-5h-13.423
			c2.885-46.769,40.572-84.271,87.42-86.859v14.459c0,2.761,2.239,5,5,5c2.762,0,5-2.239,5-5v-14.482
			c47.01,2.42,84.876,39.997,87.771,86.882h-16.118c-2.768,0-5,2.239-5,5C328.824,258.938,331.063,261.174,333.824,261.174z
			 M252.173,64.664v89.633c-52.364,2.609-94.53,44.592-97.44,96.877H65.087C68.102,149.489,150.411,67.365,252.173,64.664z
			 M65.046,261.174h89.615c2.155,53.001,44.633,95.788,97.512,98.424v89.639C149.895,446.516,67.266,363.572,65.046,261.174z
			 M262.173,449.24v-89.631c53.04-2.465,95.7-45.318,97.86-98.438h89.615C447.427,363.688,364.611,446.705,262.173,449.24z"/>
	</g>
</g>
</svg>
