<?xml version="1.0" encoding="utf-8"?>
<!-- Generator: Adobe Illustrator 16.0.3, SVG Export Plug-In . SVG Version: 6.00 Build 0)  -->
<!DOCTYPE svg PUBLIC "-//W3C//DTD SVG 1.1//EN" "http://www.w3.org/Graphics/SVG/1.1/DTD/svg11.dtd">
<svg version="1.1" id="Capa_1" xmlns="http://www.w3.org/2000/svg" xmlns:xlink="http://www.w3.org/1999/xlink" x="0px" y="0px"
	 width="512px" height="512px" viewBox="0 0 512 512" enable-background="new 0 0 512 512" xml:space="preserve">
<g id="fondo_1_" display="none">
	<g id="fondo" display="inline">
		<rect width="512" height="512"/>
	</g>
</g>
<g id="change_1_">
	<g>
		<g>
			<path fill="#FFFFFF" d="M312.833,229.185c0-0.113-0.029-0.219-0.035-0.331c-0.014-0.259-0.029-0.516-0.076-0.772
				c-0.029-0.165-0.078-0.321-0.119-0.481c-0.059-0.216-0.119-0.43-0.199-0.641c-0.064-0.167-0.143-0.324-0.221-0.483
				c-0.094-0.188-0.189-0.372-0.303-0.552c-0.1-0.164-0.215-0.316-0.332-0.469c-0.074-0.099-0.133-0.208-0.215-0.303
				c-0.064-0.073-0.129-0.146-0.197-0.217c-0.021-0.023-0.047-0.041-0.07-0.064c-0.051-0.052-0.107-0.099-0.162-0.151
				c-0.125-0.117-0.246-0.241-0.377-0.347l-19.707-16.38c-2.621-2.178-6.512-1.817-8.686,0.801c-2.18,2.619-1.82,6.508,0.799,8.686
				l6.662,5.536h-44.47c-2.96-9.591-11.895-16.561-22.458-16.561c-12.979,0-23.5,10.521-23.5,23.5s10.521,23.5,23.5,23.5
				c11.121,0,20.43-7.727,22.87-18.103h45.173l-7.982,7.258c-1.34,1.217-2.02,2.888-2.02,4.566c0,1.48,0.529,2.965,1.604,4.147
				c1.217,1.338,2.889,2.019,4.566,2.019c1.48,0,2.965-0.53,4.146-1.604l19.789-17.99c0.004-0.002,0.006-0.004,0.008-0.007
				c0,0,0.002,0,0.002-0.001c0.035-0.032,0.061-0.071,0.094-0.104c0.141-0.135,0.264-0.285,0.391-0.432
				c0.133-0.154,0.27-0.303,0.385-0.466c0.104-0.146,0.186-0.301,0.277-0.456c0.107-0.184,0.215-0.364,0.301-0.556
				c0.074-0.16,0.129-0.327,0.188-0.494c0.072-0.203,0.139-0.404,0.189-0.613c0.041-0.167,0.064-0.339,0.092-0.512
				c0.02-0.128,0.057-0.254,0.068-0.384c0-0.002,0.002-0.006,0.002-0.008c0.012-0.12,0.018-0.239,0.021-0.358
				c-0.002-0.002-0.002-0.005,0-0.008c0-0.03-0.006-0.06-0.006-0.089C312.825,229.235,312.833,229.211,312.833,229.185z
				 M235.167,237.259c0,4.773-3.995,8.65-9.5,9.658v2.164c0,1.656-1.343,3-3,3s-3-1.344-3-3v-2.227
				c-5.342-1.096-9.188-4.914-9.188-9.596c0-1.656,1.343-3,3-3s3,1.344,3,3c0,1.27,1.221,2.637,3.188,3.375v-7.785
				c-5.342-1.096-9.188-4.914-9.188-9.596s3.846-8.498,9.188-9.594v-2.391c0-1.656,1.343-3,3-3s3,1.344,3,3v2.327
				c5.505,1.008,9.5,4.885,9.5,9.657c0,1.657-1.343,3-3,3s-3-1.343-3-3c0-1.334-1.353-2.773-3.5-3.479v7.827
				C231.172,228.609,235.167,232.485,235.167,237.259z"/>
			<path fill="#FFFFFF" d="M225.667,240.739c2.147-0.707,3.5-2.146,3.5-3.48s-1.353-2.773-3.5-3.479V240.739z"/>
			<path fill="#FFFFFF" d="M216.479,223.253c0,1.27,1.221,2.637,3.188,3.375v-6.748C217.7,220.617,216.479,221.984,216.479,223.253z
				"/>
		</g>
		<g>
			<path fill="#FFFFFF" d="M292.333,292.827c2.148-0.707,3.5-2.146,3.5-3.48s-1.352-2.773-3.5-3.479V292.827z"/>
			<path fill="#FFFFFF" d="M283.146,275.341c0,1.27,1.221,2.637,3.188,3.375v-6.748
				C284.366,272.705,283.146,274.072,283.146,275.341z"/>
			<path fill="#FFFFFF" d="M289.333,258.543c-10.563,0-19.497,6.971-22.457,16.562h-44.471l6.662-5.537
				c2.618-2.177,2.978-6.065,0.799-8.685c-2.177-2.619-6.063-2.979-8.686-0.801l-19.708,16.38c-0.135,0.108-0.261,0.235-0.388,0.357
				c-0.048,0.046-0.101,0.089-0.146,0.135c-0.024,0.023-0.048,0.042-0.07,0.064c-0.002-0.002-0.002,0.002-0.004,0.006
				c-0.066,0.07-0.133,0.143-0.197,0.217c-0.083,0.094-0.141,0.202-0.215,0.303c-0.119,0.153-0.233,0.306-0.333,0.468
				c-0.112,0.181-0.209,0.365-0.301,0.553c-0.078,0.158-0.156,0.317-0.221,0.483c-0.081,0.211-0.141,0.424-0.199,0.641
				c-0.042,0.158-0.09,0.315-0.121,0.479c-0.046,0.258-0.062,0.515-0.076,0.773c-0.006,0.112-0.034,0.217-0.034,0.331
				c0,0.026,0.008,0.051,0.008,0.076c0,0.03-0.006,0.059-0.006,0.089c-0.002,0.004-0.002,0.006,0,0.008
				c0.004,0.12,0.01,0.239,0.02,0.359c0,0.002,0.002,0.006,0.002,0.008c0.012,0.129,0.05,0.255,0.068,0.384
				c0.028,0.173,0.052,0.344,0.092,0.512c0.05,0.209,0.119,0.41,0.191,0.612c0.058,0.167,0.112,0.334,0.187,0.494
				c0.086,0.19,0.193,0.372,0.301,0.557c0.09,0.154,0.173,0.309,0.277,0.456c0.114,0.162,0.251,0.311,0.383,0.466
				c0.128,0.146,0.251,0.297,0.392,0.432c0.034,0.031,0.058,0.072,0.094,0.104h0.002c0.002,0.005,0.004,0.007,0.008,0.009
				l19.789,17.989c1.181,1.074,2.667,1.604,4.146,1.604c1.676,0,3.349-0.681,4.565-2.02c1.074-1.181,1.604-2.667,1.604-4.146
				c0-1.679-0.681-3.349-2.021-4.565l-7.982-7.259h45.174c2.439,10.376,11.749,18.104,22.87,18.104c12.979,0,23.5-10.521,23.5-23.5
				S302.312,258.543,289.333,258.543z M301.833,289.347c0,4.773-3.994,8.65-9.5,9.658v2.164c0,1.656-1.342,3-3,3
				c-1.656,0-3-1.344-3-3v-2.227c-5.342-1.096-9.188-4.914-9.188-9.596c0-1.656,1.344-3,3-3c1.658,0,3,1.344,3,3
				c0,1.27,1.221,2.637,3.188,3.375v-7.785c-5.342-1.096-9.188-4.914-9.188-9.596s3.846-8.498,9.188-9.594v-2.391
				c0-1.656,1.344-3,3-3c1.658,0,3,1.344,3,3v2.327c5.506,1.008,9.5,4.885,9.5,9.657c0,1.657-1.342,3-3,3c-1.656,0-3-1.343-3-3
				c0-1.334-1.352-2.773-3.5-3.479v7.827C297.839,280.697,301.833,284.573,301.833,289.347z"/>
		</g>
	</g>
	<g id="change">
		<path fill="#FFFFFF" d="M477.5,251.174h-17.886c-3.022-107.315-90.003-193.991-197.441-196.52V35.099c0-2.762-2.237-5-5-5
			c-2.761,0-5,2.238-5,5V54.66C144.896,57.365,58.1,143.975,55.08,251.174H34.5c-2.762,0-5,2.239-5,5c0,2.764,2.238,5,5,5h20.546
			c2.224,107.913,89.333,195.343,197.126,198.063v17.664c0,2.762,2.239,5,5,5c2.762,0,5-2.238,5-5v-17.66
			c107.953-2.539,195.25-90.037,197.479-198.066h17.85c2.762,0,5-2.237,5-5C482.5,253.413,480.262,251.174,477.5,251.174z
			 M449.608,251.174h-89.646c-2.916-52.4-45.264-94.449-97.789-96.89v-89.63C364.096,67.176,446.591,149.372,449.608,251.174z
			 M333.824,261.174h16.202c-2.146,47.604-40.329,85.981-87.854,88.43v-16.377c0-2.764-2.238-5-5-5c-2.761,0-5,2.236-5,5v16.354
			c-47.363-2.617-85.363-40.92-87.505-88.406h13.508c2.761,0,5-2.235,5-5c0-2.761-2.239-5-5-5h-13.423
			c2.885-46.769,40.572-84.271,87.42-86.859v14.459c0,2.761,2.239,5,5,5c2.762,0,5-2.239,5-5v-14.482
			c47.01,2.42,84.876,39.997,87.771,86.882h-16.118c-2.769,0-5,2.239-5,5C328.824,258.938,331.063,261.174,333.824,261.174z
			 M252.173,64.664v89.633c-52.364,2.609-94.53,44.592-97.44,96.877H65.087C68.102,149.489,150.411,67.365,252.173,64.664z
			 M65.046,261.174h89.615c2.155,53.001,44.633,95.788,97.512,98.424v89.64C149.895,446.516,67.266,363.572,65.046,261.174z
			 M262.173,449.24v-89.631c53.04-2.465,95.7-45.318,97.86-98.438h89.615C447.427,363.688,364.611,446.705,262.173,449.24z"/>
	</g>
</g>
</svg>
