<?xml version="1.0" encoding="utf-8"?>
<!-- Generator: Adobe Illustrator 16.0.3, SVG Export Plug-In . SVG Version: 6.00 Build 0)  -->
<!DOCTYPE svg PUBLIC "-//W3C//DTD SVG 1.1//EN" "http://www.w3.org/Graphics/SVG/1.1/DTD/svg11.dtd">
<svg version="1.1" id="Capa_1" xmlns="http://www.w3.org/2000/svg" xmlns:xlink="http://www.w3.org/1999/xlink" x="0px" y="0px"
	 width="512px" height="512px" viewBox="0 0 512 512" enable-background="new 0 0 512 512" xml:space="preserve">
<g id="iconoPáginas_1_">
	<g id="mancha">
		<linearGradient id="SVGID_1_" gradientUnits="userSpaceOnUse" x1="423.6494" y1="495.7939" x2="144.1239" y2="-4.4093">
			<stop  offset="0" style="stop-color:#5B106D"/>
			<stop  offset="1" style="stop-color:#1C87B8"/>
		</linearGradient>
		
			<path fill="url(#SVGID_1_)" stroke="#FFFFFF" stroke-width="3" stroke-linecap="round" stroke-linejoin="round" stroke-miterlimit="10" d="
			M265.834,150.851c7.204,19.891,29.606,23.776,28.954-0.164c-0.476-17.487-1.953-36.684,20.646-38.902
			c15.991-1.569,43.184,8.174,36.943,29.584c-6.769,23.224-6.017,36.008,9.027,35.258c13.465-0.674,23.169-21.781,31.45-30.535
			c10.538-11.137,23.606-20.634,39.046-23.167c18.958-3.11,42.507,6.691,52.567,22.924c11.238,18.137,3.324,38.533-10.763,52.633
			c-13.091,13.101-28.045,17.793-45.372,22.294c-13.361,3.471-31.162,7.595-37.308,21.639
			c-9.411,21.509,24.353,29.814,36.587,37.999c16.415,10.977,28.701,37.881,18.029,56.411
			c-14.291,24.822-49.641,31.593-72.958-6.019c-4.879-7.865-11.521-17.424-21.53-18.328c-9.374-0.848-15.736,5.824-15.022,15.353
			c1.765,23.649,20.12,39.994,31.843,59.087c14.66,23.875,13.38,61.914-8.716,81.348c-10.527,9.26-32.421,13.382-45.989,10.713
			c-45.88-9.026-48.887-63.931-43.624-81.981c5.42-18.586,11.716-36.549,15.201-55.683c1.487-8.168,3.034-17.695-3.304-24.321
			c-4.29-4.485-17.458-7.261-23.101-4.478c-6.145,3.031-8.315,10.948-9.634,17.085c-3.969,18.491,5.411,64.244-20.529,71.157
			c-22.564,6.016-46.633-7.521-42.872-30.841c2.53-15.667,10.304-30.406,17.457-44.398c3.373-6.602,8.562-15.649,2.863-22.529
			c-4.497-5.422-11.614-4.643-16.647-0.637c-13.324,10.605-16.946,30.543-27.162,43.886c-10.69,13.962-25.377,25.446-43.597,26.247
			c-23.529,1.035-35.084-17.126-30.689-38.664c7.521-36.854,38.358-44.376,54.904-50.394c16.548-6.018,38.36-27.829,9.78-32.342
			c-28.581-4.513-94.014-9.022-72.204-71.452c7.898-22.605,28.688-34.133,48.855-18.541c14.329,11.078,49.8,64.437,70.731,32.08
			c8.271-12.786,1.503-37.605-6.017-48.886c-18.908-28.365-25.366-76.894,13.252-92.152c8.45-3.338,23.608-5.031,32.11-0.751
			c31.506,15.859,21.146,67.056,25.567,94.8C264.86,147.754,265.278,149.319,265.834,150.851z"/>
		<linearGradient id="SVGID_2_" gradientUnits="userSpaceOnUse" x1="559.3838" y1="419.9912" x2="280.2941" y2="-79.4322">
			<stop  offset="0" style="stop-color:#5B106D"/>
			<stop  offset="1" style="stop-color:#1C87B8"/>
		</linearGradient>
		
			<path fill="url(#SVGID_2_)" stroke="#FFFFFF" stroke-width="3" stroke-linecap="round" stroke-linejoin="round" stroke-miterlimit="10" d="
			M480.991,260.867c0,5.814-4.713,10.526-10.531,10.526c-5.814,0-10.528-4.712-10.528-10.526c0-5.817,4.714-10.531,10.528-10.531
			C476.278,250.336,480.991,255.05,480.991,260.867z"/>
		<linearGradient id="SVGID_3_" gradientUnits="userSpaceOnUse" x1="538.0635" y1="431.9131" x2="258.9677" y2="-67.5213">
			<stop  offset="0" style="stop-color:#5B106D"/>
			<stop  offset="1" style="stop-color:#1C87B8"/>
		</linearGradient>
		
			<circle fill="url(#SVGID_3_)" stroke="#FFFFFF" stroke-width="3" stroke-linecap="round" stroke-linejoin="round" stroke-miterlimit="10" cx="326.053" cy="52.526" r="20.309"/>
		<linearGradient id="SVGID_4_" gradientUnits="userSpaceOnUse" x1="279.874" y1="576.1973" x2="0.7726" y2="76.7529">
			<stop  offset="0" style="stop-color:#5B106D"/>
			<stop  offset="1" style="stop-color:#1C87B8"/>
		</linearGradient>
		
			<path fill="url(#SVGID_4_)" stroke="#FFFFFF" stroke-width="3" stroke-linecap="round" stroke-linejoin="round" stroke-miterlimit="10" d="
			M223.014,445.509c0,8.932-7.241,16.174-16.17,16.174s-16.171-7.242-16.171-16.174c0-8.929,7.241-16.168,16.171-16.168
			S223.014,436.58,223.014,445.509z"/>
		<linearGradient id="SVGID_5_" gradientUnits="userSpaceOnUse" x1="222.9712" y1="607.9727" x2="-56.1116" y2="108.5615">
			<stop  offset="0" style="stop-color:#5B106D"/>
			<stop  offset="1" style="stop-color:#1C87B8"/>
		</linearGradient>
		
			<circle fill="url(#SVGID_5_)" stroke="#FFFFFF" stroke-width="3" stroke-linecap="round" stroke-linejoin="round" stroke-miterlimit="10" cx="37.616" cy="276.282" r="15.419"/>
	</g>
	<g id="brillos">
		<g>
			<path fill="#FFFFFF" d="M85.002,192.889c0,0,0.062-0.219,0.178-0.63c0.126-0.408,0.261-1.021,0.527-1.775
				c0.258-0.757,0.564-1.687,1.005-2.712c0.202-0.522,0.448-1.064,0.713-1.634c0.253-0.577,0.556-1.164,0.886-1.771
				c0.632-1.229,1.417-2.512,2.324-3.821c0.925-1.294,1.944-2.644,3.17-3.892c1.204-1.265,2.535-2.509,4.043-3.579
				c1.498-1.078,3.109-2.074,4.838-2.837c1.731-0.756,3.545-1.324,5.372-1.684c1.829-0.372,3.675-0.423,5.437-0.354
				c1.77,0.05,3.448,0.411,5.002,0.803c1.546,0.436,2.976,0.948,4.223,1.568c0.636,0.28,1.223,0.593,1.771,0.906
				c0.557,0.297,1.064,0.613,1.532,0.924c0.959,0.582,1.72,1.197,2.363,1.672c0.638,0.483,1.092,0.924,1.421,1.195
				c0.323,0.28,0.495,0.429,0.495,0.429s-0.777-0.485-2.138-1.294c-0.697-0.38-1.523-0.868-2.516-1.335
				c-0.487-0.25-1.013-0.5-1.583-0.725c-0.563-0.242-1.149-0.502-1.785-0.713c-0.314-0.113-0.634-0.229-0.961-0.346
				c-0.333-0.095-0.673-0.193-1.018-0.292c-0.683-0.221-1.409-0.364-2.147-0.537c-1.49-0.273-3.072-0.498-4.713-0.496
				c-3.277-0.042-6.76,0.653-9.938,2.103c-1.606,0.683-3.116,1.59-4.53,2.58c-1.414,0.992-2.739,2.08-3.918,3.246
				c-1.196,1.149-2.261,2.36-3.228,3.547c-0.938,1.208-1.809,2.375-2.53,3.511c-0.376,0.559-0.711,1.11-1.021,1.641
				c-0.321,0.524-0.622,1.026-0.876,1.513c-0.537,0.961-0.967,1.816-1.322,2.526C85.382,192.058,85.002,192.889,85.002,192.889z"/>
		</g>
		<g>
			<path fill="#FFFFFF" d="M322.376,330.294c0,0,0.086,0.56,0.247,1.608c0.08,0.524,0.18,1.171,0.296,1.932
				c0.103,0.764,0.365,1.609,0.57,2.571c0.112,0.479,0.23,0.983,0.354,1.512c0.128,0.527,0.331,1.063,0.505,1.631
				c0.371,1.128,0.719,2.362,1.275,3.619c0.257,0.634,0.523,1.288,0.797,1.962c0.275,0.673,0.634,1.334,0.959,2.028
				c0.347,0.686,0.653,1.41,1.042,2.118c0.388,0.706,0.784,1.43,1.189,2.168c1.662,2.931,3.639,6.006,5.882,9.161
				c2.221,3.17,4.71,6.416,7.258,9.811c2.542,3.397,5.211,6.895,7.705,10.627c0.609,0.943,1.222,1.891,1.835,2.84
				c0.653,0.985,1.163,1.937,1.747,2.923c1.103,2.045,2.113,4.106,2.971,6.242c1.725,4.266,2.935,8.722,3.735,13.165
				c0.773,4.45,1.084,8.902,1.007,13.196c-0.084,4.297-0.585,8.436-1.392,12.286c-0.794,3.855-1.939,7.412-3.271,10.572
				c-1.313,3.169-2.843,5.931-4.383,8.243c-1.543,2.31-3.027,4.228-4.384,5.684c-0.647,0.755-1.284,1.374-1.84,1.91
				c-0.541,0.55-1.027,0.989-1.435,1.331c-0.8,0.698-1.227,1.07-1.227,1.07s0.4-0.399,1.151-1.148
				c0.383-0.367,0.837-0.837,1.338-1.419c0.512-0.572,1.109-1.219,1.716-1.997c1.271-1.508,2.643-3.478,4.048-5.824
				c1.397-2.353,2.758-5.133,3.947-8.275c2.396-6.276,3.931-14.07,3.969-22.452c0.024-4.189-0.395-8.512-1.147-12.837
				c-0.8-4.316-2.001-8.635-3.687-12.755c-0.817-2.069-1.795-4.08-2.818-6.009c-1.094-1.979-2.281-3.805-3.488-5.677
				c-2.449-3.682-5.012-7.225-7.51-10.651c-2.508-3.419-4.912-6.759-7.074-10.015c-1.101-1.612-2.099-3.235-3.065-4.801
				c-0.479-0.786-0.906-1.587-1.35-2.356c-0.438-0.773-0.874-1.528-1.244-2.301c-0.385-0.764-0.761-1.512-1.129-2.242
				c-0.367-0.73-0.657-1.479-0.97-2.192c-0.296-0.721-0.623-1.406-0.869-2.103c-0.244-0.696-0.48-1.373-0.71-2.029
				c-0.498-1.296-0.791-2.567-1.108-3.723c-0.147-0.582-0.324-1.13-0.428-1.671c-0.099-0.542-0.193-1.059-0.283-1.549
				c-0.163-0.981-0.38-1.848-0.427-2.616c-0.065-0.767-0.122-1.419-0.167-1.947C322.425,330.857,322.376,330.294,322.376,330.294z"
				/>
		</g>
		<g>
			<path fill="#FFFFFF" d="M407.2,286.329c0,0,0.201,0.119,0.579,0.342c0.376,0.228,0.94,0.532,1.613,1.009
				c0.691,0.451,1.497,1.043,2.396,1.757c0.892,0.724,1.879,1.568,2.887,2.565c1.007,0.996,2.081,2.102,3.101,3.369
				c1.044,1.248,2.082,2.62,3.053,4.11c0.985,1.479,1.915,3.069,2.77,4.733c0.835,1.673,1.602,3.415,2.276,5.195
				c1.281,3.582,2.168,7.322,2.43,10.896c0.153,1.782,0.156,3.519,0.025,5.152c-0.086,1.638-0.374,3.168-0.673,4.561
				c-0.165,0.694-0.354,1.353-0.526,1.977c-0.216,0.611-0.42,1.191-0.612,1.736c-0.441,1.068-0.856,1.979-1.263,2.699
				c-0.36,0.739-0.751,1.264-0.977,1.639c-0.235,0.369-0.361,0.566-0.361,0.566s0.093-0.215,0.267-0.618
				c0.167-0.405,0.445-0.981,0.709-1.752c0.302-0.753,0.576-1.699,0.897-2.773c0.127-0.546,0.262-1.126,0.404-1.738
				c0.099-0.622,0.235-1.266,0.333-1.945c0.165-1.363,0.313-2.842,0.31-4.411c0.027-1.567-0.093-3.22-0.285-4.916
				c-0.172-1.701-0.566-3.429-0.956-5.179c-0.418-1.747-0.979-3.488-1.599-5.205c-0.626-1.717-1.343-3.402-2.127-5.024
				c-0.816-1.605-1.616-3.193-2.526-4.653c-0.899-1.465-1.805-2.864-2.742-4.136c-0.924-1.282-1.867-2.443-2.76-3.5
				c-1.8-2.102-3.475-3.714-4.688-4.789c-0.6-0.546-1.1-0.957-1.438-1.236C407.38,286.479,407.2,286.329,407.2,286.329z"/>
		</g>
		<g>
			<path fill="#FFFFFF" d="M202.59,74.674c0,0,0.456-0.186,1.309-0.535c0.861-0.328,2.141-0.795,3.809-1.248
				c1.669-0.448,3.722-0.904,6.108-1.265c2.386-0.357,5.112-0.619,8.103-0.539c2.978,0.099,6.271,0.405,9.562,1.689
				c0.417,0.178,0.836,0.356,1.258,0.537c0.377,0.204,0.756,0.409,1.137,0.615c0.761,0.42,1.54,0.796,2.301,1.342
				c1.571,0.982,3.024,2.147,4.425,3.419c2.782,2.571,5.197,5.722,7.067,9.213c1.884,3.487,3.291,7.267,4.348,11.113
				c1.037,3.856,1.729,7.781,2.223,11.652c0.501,3.874,0.73,7.703,0.905,11.4c0.321,7.399,0.234,14.289,0.222,20.185
				c0.01,2.947-0.01,5.649,0.034,8.041c0.031,2.393,0.121,4.477,0.216,6.192c0.125,1.712,0.198,3.064,0.309,3.979
				c0.093,0.918,0.142,1.407,0.142,1.407s-0.087-0.484-0.25-1.393c-0.173-0.907-0.379-2.246-0.589-3.958
				c-0.401-3.425-0.793-8.344-1.011-14.247c-0.246-5.9-0.375-12.781-0.833-20.112c-0.224-3.665-0.568-7.439-1.061-11.247
				c-0.507-3.804-1.212-7.639-2.237-11.375c-1.003-3.739-2.339-7.386-4.118-10.724c-1.778-3.333-3.972-6.374-6.572-8.848
				c-1.301-1.232-2.678-2.351-4.084-3.302c-0.665-0.519-1.458-0.936-2.203-1.375c-0.375-0.217-0.748-0.434-1.118-0.648
				c-0.362-0.165-0.721-0.329-1.078-0.491c-1.493-0.625-3.036-1.069-4.565-1.35c-1.521-0.321-3.032-0.464-4.48-0.573
				c-5.823-0.347-10.723,0.352-14.071,1.038c-1.675,0.368-2.979,0.703-3.862,0.973C203.058,74.523,202.59,74.674,202.59,74.674z"/>
		</g>
		<g>
			<path fill="#FFFFFF" d="M469.049,255.4c0,0,0.17-0.067,0.465-0.152c0.146-0.04,0.326-0.093,0.528-0.131
				c0.204-0.045,0.427-0.105,0.707-0.063c0.274,0.017,0.583,0.04,0.913,0.092c0.348,0.029,0.627,0.184,0.957,0.305
				c0.316,0.14,0.671,0.255,0.949,0.496c0.298,0.213,0.589,0.451,0.878,0.688c0.237,0.289,0.476,0.579,0.689,0.876
				c0.242,0.277,0.355,0.633,0.497,0.949c0.12,0.326,0.28,0.619,0.302,0.944c0.047,0.315,0.07,0.613,0.087,0.882
				c0.042,0.264-0.012,0.517-0.057,0.734c-0.036,0.218-0.089,0.403-0.129,0.553c-0.085,0.299-0.153,0.458-0.153,0.458
				s-0.101-0.164-0.243-0.432c-0.068-0.134-0.156-0.291-0.231-0.469c-0.08-0.177-0.163-0.372-0.301-0.566
				c-0.128-0.197-0.262-0.404-0.38-0.623c-0.094-0.229-0.31-0.415-0.453-0.635c-0.165-0.21-0.285-0.452-0.495-0.638
				c-0.194-0.196-0.37-0.408-0.547-0.62c-0.212-0.177-0.423-0.354-0.619-0.548c-0.185-0.212-0.429-0.329-0.638-0.496
				c-0.217-0.142-0.416-0.363-0.623-0.449c-0.204-0.113-0.399-0.247-0.592-0.375c-0.178-0.138-0.403-0.227-0.595-0.307
				c-0.191-0.077-0.356-0.166-0.492-0.233C469.202,255.5,469.049,255.4,469.049,255.4z"/>
		</g>
		<g>
			<path fill="#FFFFFF" d="M324.228,38.943c0,0,0.376-0.065,1.031-0.146c0.326-0.05,0.725-0.083,1.199-0.057
				c0.473,0.004,1.021,0.005,1.587,0.117c0.289,0.044,0.59,0.089,0.902,0.137c0.304,0.084,0.618,0.171,0.94,0.261
				c0.659,0.156,1.304,0.461,1.986,0.748c0.638,0.365,1.345,0.683,1.958,1.166c0.657,0.425,1.227,0.98,1.818,1.507
				c0.526,0.592,1.083,1.16,1.508,1.816c0.485,0.612,0.801,1.321,1.166,1.959c0.286,0.682,0.594,1.326,0.748,1.985
				c0.09,0.323,0.178,0.637,0.262,0.941c0.047,0.312,0.093,0.613,0.137,0.902c0.111,0.57,0.111,1.107,0.114,1.576
				c0.025,0.467-0.006,0.873-0.057,1.207c-0.081,0.666-0.146,1.035-0.146,1.035s-0.104-0.374-0.25-1.008
				c-0.058-0.319-0.167-0.697-0.305-1.124c-0.128-0.428-0.264-0.906-0.471-1.408c-0.097-0.25-0.196-0.512-0.3-0.782
				c-0.122-0.261-0.249-0.531-0.379-0.808c-0.227-0.565-0.611-1.091-0.9-1.677c-0.377-0.542-0.732-1.116-1.176-1.642
				c-0.405-0.555-0.899-1.045-1.365-1.561c-0.516-0.466-1.006-0.961-1.561-1.366c-0.523-0.446-1.1-0.8-1.641-1.177
				c-0.587-0.289-1.111-0.676-1.678-0.901c-0.277-0.13-0.547-0.257-0.808-0.379c-0.271-0.104-0.531-0.203-0.782-0.299
				c-0.505-0.208-0.973-0.342-1.396-0.469c-0.419-0.136-0.806-0.248-1.132-0.305C324.595,39.045,324.228,38.943,324.228,38.943z"/>
		</g>
		<g>
			<path fill="#FFFFFF" d="M203.26,435.063c0,0,0.338-0.066,0.929-0.151c0.293-0.051,0.653-0.087,1.083-0.068
				c0.428-0.003,0.924-0.008,1.438,0.087c0.262,0.037,0.536,0.075,0.818,0.115c0.276,0.074,0.561,0.15,0.854,0.229
				c0.598,0.137,1.184,0.407,1.803,0.665c0.579,0.328,1.222,0.612,1.779,1.049c0.596,0.384,1.112,0.886,1.649,1.363
				c0.477,0.536,0.981,1.052,1.364,1.647c0.439,0.556,0.721,1.2,1.05,1.779c0.258,0.618,0.53,1.204,0.667,1.803
				c0.079,0.293,0.155,0.577,0.229,0.854c0.04,0.282,0.078,0.556,0.115,0.818c0.095,0.517,0.089,1.003,0.085,1.427
				c0.017,0.422-0.018,0.79-0.069,1.091c-0.084,0.601-0.152,0.933-0.152,0.933s-0.102-0.337-0.245-0.906
				c-0.057-0.286-0.163-0.625-0.292-1.007c-0.122-0.384-0.251-0.811-0.442-1.259c-0.164-0.456-0.382-0.929-0.625-1.418
				c-0.208-0.504-0.558-0.971-0.818-1.494c-0.339-0.482-0.662-0.993-1.059-1.462c-0.363-0.494-0.806-0.932-1.222-1.392
				c-0.46-0.417-0.897-0.86-1.392-1.223c-0.467-0.4-0.979-0.721-1.462-1.061c-0.523-0.26-0.989-0.612-1.494-0.818
				c-0.248-0.119-0.488-0.235-0.721-0.348c-0.241-0.096-0.474-0.188-0.698-0.277c-0.452-0.191-0.869-0.319-1.248-0.44
				c-0.374-0.128-0.722-0.235-1.016-0.292C203.59,435.164,203.26,435.063,203.26,435.063z"/>
		</g>
		<g>
			<path fill="#FFFFFF" d="M34.985,266.13c0,0,0.317-0.067,0.872-0.154c0.275-0.051,0.612-0.089,1.017-0.076
				c0.402-0.006,0.871-0.015,1.354,0.071c0.247,0.033,0.504,0.067,0.771,0.103c0.261,0.06,0.527,0.138,0.804,0.211
				c0.563,0.127,1.117,0.377,1.699,0.619c0.546,0.307,1.153,0.572,1.677,0.982c0.563,0.359,1.048,0.833,1.554,1.282
				c0.449,0.505,0.923,0.99,1.283,1.553c0.413,0.523,0.676,1.132,0.983,1.677c0.241,0.583,0.494,1.136,0.619,1.7
				c0.073,0.275,0.143,0.544,0.211,0.804c0.036,0.267,0.069,0.523,0.103,0.771c0.086,0.487,0.076,0.944,0.068,1.344
				c0.013,0.396-0.024,0.741-0.076,1.024c-0.086,0.564-0.155,0.875-0.155,0.875s-0.101-0.315-0.242-0.849
				c-0.057-0.268-0.16-0.585-0.285-0.941c-0.118-0.358-0.243-0.757-0.425-1.175c-0.158-0.425-0.365-0.864-0.594-1.321
				c-0.197-0.469-0.527-0.903-0.772-1.391c-0.318-0.449-0.621-0.924-0.993-1.359c-0.34-0.461-0.752-0.868-1.14-1.298
				c-0.429-0.388-0.836-0.802-1.296-1.142c-0.435-0.373-0.911-0.675-1.36-0.993c-0.487-0.244-0.92-0.577-1.391-0.772
				c-0.457-0.229-0.896-0.438-1.321-0.594c-0.422-0.184-0.81-0.307-1.164-0.424c-0.349-0.124-0.674-0.229-0.95-0.285
				C35.294,266.229,34.985,266.13,34.985,266.13z"/>
		</g>
	</g>
</g>
</svg>
