<?xml version="1.0" encoding="utf-8"?>
<!-- Generator: Adobe Illustrator 16.0.3, SVG Export Plug-In . SVG Version: 6.00 Build 0)  -->
<!DOCTYPE svg PUBLIC "-//W3C//DTD SVG 1.1//EN" "http://www.w3.org/Graphics/SVG/1.1/DTD/svg11.dtd">
<svg version="1.1" xmlns="http://www.w3.org/2000/svg" xmlns:xlink="http://www.w3.org/1999/xlink" x="0px" y="0px" width="512px"
	 height="512px" viewBox="0 0 512 512" enable-background="new 0 0 512 512" xml:space="preserve">
<g id="fondo_1_" display="none">
	<g id="fondo" display="inline">
		<rect fill="#FFFFFF" width="512" height="512"/>
	</g>
</g>
<g id="marketplace2_1_">
	<g id="marketplace2">
		<g>
			<g>
				<g>
					<g>
						<path fill="#FFFFFF" d="M304.848,323.588h-97.691c-7.664,0-13.9-6.236-13.9-13.899V241.87c0-1.373,0.669-2.661,1.794-3.448
							c1.124-0.788,2.563-0.979,3.854-0.511c1.503,0.545,3.086,0.821,4.708,0.821c6.462,0,12.009-4.454,13.19-10.593
							c0.381-1.981,2.116-3.415,4.134-3.416c0.001,0,0.001,0,0.002,0c2.018,0,3.751,1.432,4.136,3.413
							c1.187,6.14,6.735,10.596,13.188,10.596c6.517,0,12.071-4.491,13.211-10.679c0.366-1.997,2.108-3.448,4.141-3.449h0.001
							c2.03,0,3.772,1.449,4.143,3.446c1.143,6.188,6.697,10.682,13.207,10.682c2.326,0,4.211,1.886,4.211,4.212
							c0,2.325-1.885,4.212-4.211,4.212c-6.998,0-13.324-3.239-17.347-8.383c-4.022,5.144-10.351,8.383-17.353,8.383
							c-6.968,0-13.293-3.237-17.324-8.373c-4.029,5.136-10.354,8.373-17.329,8.373c-0.647,0-1.292-0.027-1.932-0.083v62.615
							c0,3.02,2.458,5.476,5.478,5.476h97.69c3.02,0,5.475-2.456,5.475-5.476v-62.615c-0.637,0.056-1.283,0.083-1.93,0.083
							c-2.326,0-4.213-1.887-4.213-4.212c0-2.326,1.887-4.212,4.213-4.212c1.623,0,3.205-0.276,4.705-0.82
							c1.291-0.469,2.729-0.278,3.855,0.51c1.125,0.789,1.793,2.075,1.793,3.449v67.818
							C318.746,317.354,312.51,323.588,304.848,323.588z"/>
					</g>
					<g>
						<path fill="#FFFFFF" d="M308.391,247.156c-6.496,0-12.125-2.996-16.244-8.455c-3.906,5.207-10.813,8.455-19.184,8.455
							c-6.998,0-13.324-3.239-17.348-8.383c-4.021,5.144-10.35,8.383-17.353,8.383c-6.967,0-13.292-3.237-17.323-8.373
							c-4.029,5.136-10.355,8.373-17.329,8.373c-2.604,0-5.154-0.446-7.58-1.326c-8.532-3.091-14.265-11.162-14.265-20.082
							c0-0.873,0-1.231,8.357-26.485c1.69-6.398,7.04-10.853,13.06-10.853h104.458c4.584,0,8.832,2.526,11.359,6.76
							c0.113,0.189,11.234,28.414,11.234,30.578c0,8.921-5.732,16.992-14.266,20.083
							C313.547,246.71,310.996,247.156,308.391,247.156z M291.406,223.943c0.902,0,3.111,0.31,4.111,3.178
							c1.51,4.337,5.189,11.611,12.873,11.611c1.623,0,3.207-0.276,4.705-0.82c5.027-1.821,8.463-6.432,8.703-11.589
							c-1.271-3.767-9.061-24.544-10.123-26.983c-0.992-1.572-2.49-2.506-4.035-2.506H203.184c-2.211,0-4.239,1.913-4.935,4.655
							c-0.024,0.097-0.054,0.192-0.084,0.286c-2.754,8.323-7.151,21.719-7.963,24.472c0.208,5.188,3.653,9.834,8.702,11.664
							c1.505,0.545,3.088,0.821,4.71,0.821c6.462,0,12.009-4.454,13.19-10.593c0.381-1.981,2.116-3.415,4.134-3.416
							c0.001,0,0.001,0,0.002,0c2.018,0,3.751,1.432,4.136,3.413c1.187,6.14,6.734,10.596,13.19,10.596
							c6.515,0,12.07-4.491,13.209-10.679c0.367-1.997,2.108-3.448,4.141-3.449h0.001c2.033,0,3.773,1.449,4.142,3.446
							c1.143,6.188,6.697,10.682,13.209,10.682c6.852,0,14.227-3.307,14.227-10.563
							C287.189,225.844,289.078,223.943,291.406,223.943z"/>
					</g>
				</g>
				<g>
					<g>
						<path fill="#FFFFFF" d="M237.117,323.162c-5.202,0-10.091-0.383-13.766-1.076c-2.307-0.436-9.331-1.764-9.331-7.148v-45.211
							c0-7.665,6.235-13.9,13.899-13.9h18.393c7.663,0,13.9,6.235,13.9,13.9v45.211c0,5.385-7.024,6.713-9.332,7.148
							C247.207,322.779,242.318,323.162,237.117,323.162z M222.444,313.213c2.179,0.719,7.396,1.525,14.672,1.525
							c7.276,0,12.494-0.807,14.673-1.525v-43.486c0-3.021-2.457-5.477-5.476-5.477h-18.393c-3.019,0-5.476,2.456-5.476,5.477
							L222.444,313.213L222.444,313.213z"/>
					</g>
					<g>
						<path fill="#FFFFFF" d="M289.279,293.143h-10.092c-7.664,0-13.9-6.236-13.9-13.9v-9.516c0-7.665,6.236-13.9,13.9-13.9h10.092
							c7.664,0,13.9,6.235,13.9,13.9v9.516C303.182,286.906,296.945,293.143,289.279,293.143z M279.188,264.25
							c-3.021,0-5.477,2.456-5.477,5.477v9.516c0,3.019,2.455,5.477,5.477,5.477h10.092c3.021,0,5.477-2.458,5.477-5.477v-9.516
							c0-3.021-2.455-5.477-5.477-5.477H279.188z"/>
					</g>
				</g>
			</g>
		</g>
		<path fill="#FFFFFF" d="M489.23,250.918h-18.834C467.215,137.92,375.629,46.653,262.5,43.991V23.4
			c0-2.908-2.355-5.265-5.266-5.265c-2.906,0-5.264,2.356-5.264,5.265v20.597C139.012,46.846,47.62,138.042,44.44,250.918H22.77
			c-2.907,0-5.265,2.358-5.265,5.265c0,2.909,2.357,5.266,5.265,5.266h21.634C46.745,375.075,138.468,467.135,251.969,470v18.6
			c0,2.908,2.358,5.265,5.265,5.265c2.908,0,5.264-2.356,5.264-5.265v-18.596c113.672-2.674,205.59-94.805,207.936-208.555h18.797
			c2.908,0,5.264-2.357,5.264-5.266C494.494,253.276,492.139,250.918,489.23,250.918z M459.861,250.918h-94.395
			c-3.07-55.175-47.66-99.451-102.967-102.021V54.521C369.82,57.176,456.684,143.726,459.861,250.918z M337.945,261.448h17.061
			c-2.26,50.125-42.465,90.534-92.508,93.111v-17.244c0-2.909-2.355-5.266-5.264-5.266c-2.907,0-5.265,2.356-5.265,5.266v17.22
			c-49.871-2.756-89.884-43.087-92.139-93.087h14.223c2.907,0,5.265-2.356,5.265-5.266c0-2.906-2.357-5.265-5.265-5.265H159.92
			c3.038-49.245,42.721-88.733,92.049-91.459v15.225c0,2.907,2.358,5.265,5.265,5.265c2.908,0,5.264-2.357,5.264-5.265v-15.249
			c49.5,2.548,89.371,42.115,92.42,91.482h-16.973c-2.908,0-5.264,2.358-5.264,5.265
			C332.682,259.092,335.037,261.448,337.945,261.448z M251.97,54.531v94.38c-55.137,2.747-99.537,46.953-102.6,102.007H54.977
			C58.151,143.849,144.82,57.376,251.97,54.531z M54.934,261.448h94.361c2.27,55.807,46.996,100.86,102.675,103.635v94.381
			C144.276,456.604,57.271,369.269,54.934,261.448z M262.5,459.474v-94.377c55.85-2.595,100.768-47.719,103.043-103.649h94.361
			C457.564,369.391,370.363,456.804,262.5,459.474z"/>
	</g>
</g>
</svg>
