<?xml version="1.0" encoding="utf-8"?>
<!-- Generator: Adobe Illustrator 16.0.3, SVG Export Plug-In . SVG Version: 6.00 Build 0)  -->
<!DOCTYPE svg PUBLIC "-//W3C//DTD SVG 1.1//EN" "http://www.w3.org/Graphics/SVG/1.1/DTD/svg11.dtd">
<svg version="1.1" xmlns="http://www.w3.org/2000/svg" xmlns:xlink="http://www.w3.org/1999/xlink" x="0px" y="0px" width="512px"
	 height="512px" viewBox="0 0 512 512" enable-background="new 0 0 512 512" xml:space="preserve">
<g id="fondo_1_" display="none">
	<g id="fondo" display="inline">
		<rect fill="#FFFFFF" width="512" height="512"/>
	</g>
</g>
<g id="user_1_">
	<g id="user">
		<path fill="#FFFFFF" d="M254.822,483.721c-15.542,0-34.767-2.507-49.091-8.828c-20.071-8.855-25.115-31.645-25.157-51.722
			c-0.062-30.93,35.018-158.552,55.482-187.653c3.342-4.75,11.416-17.564,18.766-16.625h2.27
			c7.35-0.939,15.424,11.875,18.766,16.625c20.463,29.103,55.545,156.725,55.482,187.653c-0.043,20.077-5.086,42.865-25.158,51.722
			c-14.324,6.321-33.549,8.828-49.09,8.828H254.822z"/>
		<path fill="#FFFFFF" d="M75.758,293.707c0,0-4.828-3.359-3.189,7.863c3.507,24.018,30.926,116.476,96.921,140.705
			c0,0-20.461-58.418,11.084-104.573C180.576,337.702,97.438,338.341,75.758,293.707z"/>
		<path fill="#FFFFFF" d="M439.754,293.707c0,0,4.828-3.359,3.189,7.863c-3.508,24.018-30.928,116.476-96.922,140.705
			c0,0,20.463-58.418-11.084-104.573C334.938,337.702,418.076,338.341,439.754,293.707z"/>
		<path fill="#FFFFFF" d="M208.603,262.889c0,0-29.541,50.709-73.115,30.346C135.486,293.234,196.063,367.757,208.603,262.889z"/>
		<path fill="#FFFFFF" d="M303.822,262.889c0,0,29.541,50.709,73.113,30.346C376.938,293.234,316.363,367.757,303.822,262.889z"/>
		<path fill="#FFFFFF" d="M69.223,192.96c-4.481-4.481-11.316-4.325-15.299,0.892c-2.027,2.657-2.74,6.254-3.272,9.479
			c-1.275,7.728-0.975,16.469,1.075,24.028c1.769,6.526,6.155,12.877,12.409,15.775C80.381,250.665,65.396,203.48,69.223,192.96z"/>
		<path fill="#FFFFFF" d="M442.777,192.96c4.479-4.481,11.313-4.325,15.299,0.892c2.025,2.657,2.74,6.254,3.273,9.479
			c1.275,7.728,0.973,16.469-1.076,24.028c-1.768,6.526-6.158,12.877-12.408,15.775C431.621,250.665,446.604,203.48,442.777,192.96z
			"/>
		<g>
			<path fill="#FFFFFF" d="M448.758,161.827c-6.018,0-10.896-4.878-10.896-10.897c0-93.836-72.008-100.854-181.859-100.854
				c-109.854,0-181.861,7.02-181.861,100.854c0,6.02-4.878,10.897-10.897,10.897s-10.897-4.878-10.897-10.897
				c0-53.403,20.653-88.026,63.14-105.847c36.997-15.52,87.578-16.804,140.516-16.804c52.936,0,103.516,1.285,140.514,16.804
				c42.486,17.82,63.141,52.443,63.141,105.847C459.654,156.948,454.775,161.827,448.758,161.827z"/>
		</g>
		<path fill="#FFFFFF" d="M426.986,205.402c4.939-20.801,5.82-41.706-9.127-58.563c-5.047-5.694-12.156-10.688-18.939-14.035
			c-28.438-14.037-64.246-11.843-94.766-8.883c-17.25,1.674-34.461,3.736-51.565,6.548c0,0-27.576-4.874-44.83-6.548
			c-30.517-2.96-66.325-5.154-94.762,8.883c-6.785,3.348-13.893,8.341-18.942,14.035c-14.947,16.856-14.065,37.762-9.124,58.563
			c1.947,8.203-0.444,17.486-0.556,25.843c-0.291,21.62,11.943,38.422,31.576,46.838c4.979,2.135,10.417,3.665,15.752,4.601
			c24.078,4.213,47.922-2.152,65.652-19.125c9.19-8.799,16.154-19.488,23.97-29.431c6.384-8.121,14.325-17.019,23.703-21.34
			c6.668-3.074,14.06-3.83,22.132-0.353c10.244,4.418,16.756,13.203,23.428,21.691c7.816,9.941,14.783,20.632,23.973,29.43
			c17.729,16.973,41.572,23.34,65.65,19.125c5.336-0.935,10.773-2.465,15.752-4.6c19.633-8.416,31.867-25.218,31.576-46.838
			C427.43,222.889,425.037,213.605,426.986,205.402z M285.691,206.62c-2.328,0-4.217-1.886-4.217-4.214s1.889-4.215,4.217-4.215
			c2.326,0,4.213,1.887,4.213,4.215S288.018,206.62,285.691,206.62z M364.531,135.693c3.066,0,5.551,2.485,5.551,5.552
			c0,3.065-2.484,5.551-5.551,5.551s-5.553-2.484-5.553-5.551C358.979,138.18,361.465,135.693,364.531,135.693z M331.947,253.082
			c-2.441,0-4.42-1.98-4.42-4.42c0-2.441,1.979-4.418,4.42-4.418c2.439,0,4.42,1.979,4.42,4.418S334.389,253.082,331.947,253.082z
			 M404.002,201.068c-1.588,0-2.877-1.287-2.877-2.877c0-1.588,1.289-2.877,2.877-2.877c1.592,0,2.879,1.287,2.879,2.877
			C406.881,199.782,405.594,201.068,404.002,201.068z M404.891,181.141c-3.58,3.58-7.666,4.863-12.402,6.094
			c-3.652,0.949-8.518,2.076-10.197,5.914c-2.572,5.881,6.656,8.15,10,10.388c4.488,3,7.846,10.354,4.93,15.42
			c-3.904,6.784-13.568,8.636-19.941-1.646c-1.334-2.149-3.148-4.763-5.885-5.01c-2.563-0.232-4.303,1.592-4.107,4.196
			c0.482,6.465,5.5,10.933,8.705,16.151c4.006,6.525,3.656,16.924-2.383,22.234c-2.879,2.532-8.861,3.658-12.57,2.93
			c-12.541-2.468-13.363-17.475-11.924-22.41c1.48-5.08,3.201-9.988,4.152-15.219c0.408-2.232,0.83-4.836-0.902-6.647
			c-1.172-1.228-4.771-1.985-6.313-1.224c-1.68,0.828-2.271,2.992-2.635,4.67c-1.084,5.054,1.479,17.56-5.611,19.451
			c-6.166,1.643-12.744-2.059-11.717-8.432c0.691-4.281,2.816-8.313,4.771-12.137c0.922-1.803,2.34-4.277,0.781-6.157
			c-1.229-1.481-3.174-1.271-4.549-0.174c-3.643,2.899-4.633,8.349-7.426,11.996c-2.922,3.815-6.936,6.954-11.916,7.173
			c-6.432,0.283-9.59-4.682-8.389-10.568c2.057-10.074,10.484-12.13,15.008-13.773c4.521-1.646,10.486-7.607,2.674-8.84
			c-7.813-1.233-25.699-2.467-19.736-19.53c2.158-6.18,7.842-9.33,13.354-5.068c3.916,3.028,13.613,17.613,19.334,8.769
			c2.26-3.494,0.41-10.278-1.646-13.361c-5.168-7.753-6.934-21.02,3.623-25.189c2.311-0.912,6.453-1.375,8.777-0.205
			c8.611,4.334,5.779,18.329,6.988,25.912c0.066,0.429,0.182,0.857,0.334,1.276c1.969,5.437,8.092,6.499,7.914-0.044
			c-0.131-4.78-0.533-10.027,5.643-10.633c4.371-0.43,11.805,2.233,10.1,8.086c-1.852,6.347-1.646,9.842,2.469,9.637
			c3.68-0.184,6.332-5.954,8.596-8.346c2.881-3.044,6.453-5.641,10.672-6.333c5.184-0.85,11.619,1.828,14.369,6.267
			C410.902,171.711,408.74,177.286,404.891,181.141z"/>
	</g>
</g>
</svg>
