<svg width="173" height="150" viewBox="0 0 173 150" fill="none" xmlns="http://www.w3.org/2000/svg">
<g clip-path="url(#clip0_21_51)" filter="url(#filter0_d_21_51)">
<path d="M86.5015 101.225H113.286C118.11 101.225 122.774 102.795 126.438 105.649L152.321 125.828C154.054 127.179 156.589 127.411 158.514 126.3C185.441 110.807 152.781 49.6666 146.307 38.5666C145.621 37.3885 144.489 30.9981 143.114 30.5419L121.348 23.3472C119.44 22.7156 117.316 22.9476 115.629 23.971C115.629 23.971 109.492 27.5361 108.117 27.5361H84.2274H65.6571C64.2819 27.5361 57.3744 23.971 57.3744 23.971C55.6844 22.9476 53.5605 22.7156 51.655 23.3472L29.889 30.5419C28.5109 30.9981 27.3824 37.3885 26.6961 38.5666C20.2225 49.6666 -12.4378 110.807 14.4889 126.3C16.4171 127.408 18.9522 127.176 20.6819 125.828L46.5651 105.649C50.2287 102.795 54.8932 101.225 59.7166 101.225H86.5015Z" fill="#38454F"/>
<path d="M108.31 88.3363C114.574 88.3363 119.652 83.7198 119.652 78.0251C119.652 72.3303 114.574 67.7138 108.31 67.7138C102.046 67.7138 96.9676 72.3303 96.9676 78.0251C96.9676 83.7198 102.046 88.3363 108.31 88.3363Z" fill="#546A79"/>
<path d="M43.0914 62.5582C49.3556 62.5582 54.4338 57.9417 54.4338 52.247C54.4338 46.5523 49.3556 41.9358 43.0914 41.9358C36.8272 41.9358 31.7491 46.5523 31.7491 52.247C31.7491 57.9417 36.8272 62.5582 43.0914 62.5582Z" fill="#546A79"/>
<path d="M128.159 47.0914C131.291 47.0914 133.83 44.7831 133.83 41.9358C133.83 39.0884 131.291 36.7802 128.159 36.7802C125.027 36.7802 122.488 39.0884 122.488 41.9358C122.488 44.7831 125.027 47.0914 128.159 47.0914Z" fill="#EBBA16"/>
<path d="M116.817 57.4026C119.949 57.4026 122.488 55.0944 122.488 52.247C122.488 49.3996 119.949 47.0914 116.817 47.0914C113.685 47.0914 111.146 49.3996 111.146 52.247C111.146 55.0944 113.685 57.4026 116.817 57.4026Z" fill="#7383BF"/>
<path d="M139.501 57.4026C142.633 57.4026 145.173 55.0944 145.173 52.247C145.173 49.3996 142.633 47.0914 139.501 47.0914C136.369 47.0914 133.83 49.3996 133.83 52.247C133.83 55.0944 136.369 57.4026 139.501 57.4026Z" fill="#D75A4A"/>
<path d="M128.159 67.7138C131.291 67.7138 133.83 65.4056 133.83 62.5582C133.83 59.7109 131.291 57.4026 128.159 57.4026C125.027 57.4026 122.488 59.7109 122.488 62.5582C122.488 65.4056 125.027 67.7138 128.159 67.7138Z" fill="#61B872"/>
<path d="M94.132 30.1913C94.132 29.6963 94.0781 29.2117 93.9789 28.7451C93.8796 28.2785 93.6641 27.8738 93.3692 27.5361C90.0487 27.5361 87.4712 27.5361 86.3398 27.5361C86.0988 27.5542 85.8719 27.6135 85.6281 27.6135C85.3814 27.6135 85.1545 27.5568 84.9163 27.5361C84.8795 27.5361 84.2301 27.5361 84.2301 27.5361H77.8586C77.609 27.83 77.4105 28.1677 77.3141 28.5673C77.0674 29.5932 77.0476 30.6991 77.3141 31.8436C78.0173 34.8597 80.7877 37.2906 84.1309 37.8087C89.4873 38.6387 94.132 34.9087 94.132 30.1913Z" fill="#AFB6BB"/>
<path d="M81.3718 71.9749H72.0541V63.5043C72.0541 62.486 71.1467 61.6637 70.0295 61.6637H62.7392C61.6191 61.6637 60.7146 62.4886 60.7146 63.5043V71.9749H51.3968C50.2768 71.9749 49.3722 72.7998 49.3722 73.8155V80.443C49.3722 81.4613 50.2796 82.2836 51.3968 82.2836H60.7117V90.7543C60.7117 91.7725 61.6191 92.5948 62.7363 92.5948H70.0266C71.1467 92.5948 72.0513 91.7699 72.0513 90.7543V82.2836H81.369C82.489 82.2836 83.3936 81.4587 83.3936 80.443V73.8155C83.3964 72.7998 82.489 71.9749 81.3718 71.9749Z" fill="#546A79"/>
</g>
<defs>
<filter id="filter0_d_21_51" x="0" y="0" width="173" height="158" filterUnits="userSpaceOnUse" color-interpolation-filters="sRGB">
<feFlood flood-opacity="0" result="BackgroundImageFix"/>
<feColorMatrix in="SourceAlpha" type="matrix" values="0 0 0 0 0 0 0 0 0 0 0 0 0 0 0 0 0 0 127 0" result="hardAlpha"/>
<feOffset dy="4"/>
<feGaussianBlur stdDeviation="2"/>
<feComposite in2="hardAlpha" operator="out"/>
<feColorMatrix type="matrix" values="0 0 0 0 0.807843 0 0 0 0 0.701961 0 0 0 0 0.701961 0 0 0 1 0"/>
</filter>
<clipPath id="clip0_21_51">
<rect width="165" height="150" fill="white" transform="translate(4)"/>
</clipPath>
</defs>
</svg>
