<svg width="136" height="136" viewBox="0 0 136 136" fill="none" xmlns="http://www.w3.org/2000/svg">
<g filter="url(#filter0_d_21_99)">
<path d="M126 60V54C126 42.972 117.028 34 106 34H96V38H106C114.822 38 122 45.178 122 54V60H126Z" fill="black"/>
<path d="M10 90H14V98C14 108.354 21.908 116.894 32 117.9V122C32 125.308 34.692 128 38 128H58C61.308 128 64 125.308 64 122V118H76V122C76 125.308 78.692 128 82 128H102C105.308 128 108 125.308 108 122V117.9C118.092 116.894 126 108.354 126 98V76H122V98C122 106.822 114.822 114 106 114C104.896 114 104 114.894 104 116V122C104 123.104 103.102 124 102 124H82C80.898 124 80 123.104 80 122V116C80 114.894 79.104 114 78 114H62C60.896 114 60 114.894 60 116V122C60 123.104 59.102 124 58 124H38C36.898 124 36 123.104 36 122V116C36 114.894 35.104 114 34 114C25.178 114 18 106.822 18 98V88C18 86.894 17.104 86 16 86H10C8.898 86 8 85.104 8 84V82H12V78H8V74H12V70H8V68C8 66.896 8.898 66 10 66H16C17.104 66 18 65.106 18 64V54C18 45.178 25.178 38 34 38H36C37.104 38 38 37.106 38 36V18C47.924 18 56 26.074 56 36C56 37.106 56.896 38 58 38H64V34H59.91C58.896 22.802 49.458 14 38 14H36C34.896 14 34 14.894 34 16V34C22.972 34 14 42.972 14 54V62H10C6.692 62 4 64.692 4 68V84C4 87.308 6.692 90 10 90Z" fill="black"/>
<path d="M100 48C100 44.692 97.308 42 94 42H66C62.692 42 60 44.692 60 48C60 51.308 62.692 54 66 54H94C97.308 54 100 51.308 100 48ZM94 50H66C64.898 50 64 49.104 64 48C64 46.896 64.898 46 66 46H94C95.102 46 96 46.896 96 48C96 49.104 95.102 50 94 50Z" fill="black"/>
<path d="M98 18C98 8.074 89.924 0 80 0C70.076 0 62 8.074 62 18C62 27.926 70.076 36 80 36C89.924 36 98 27.926 98 18ZM66 18C66 10.282 72.28 4 80 4C87.72 4 94 10.282 94 18C94 25.718 87.72 32 80 32C72.28 32 66 25.718 66 18Z" fill="black"/>
<path d="M90 18C90 12.486 85.514 8 80 8C74.486 8 70 12.486 70 18C70 23.514 74.486 28 80 28C85.514 28 90 23.514 90 18ZM74 18C74 14.692 76.692 12 80 12C83.308 12 86 14.692 86 18C86 21.308 83.308 24 80 24C76.692 24 74 21.308 74 18Z" fill="black"/>
<path d="M32 54C28.692 54 26 56.692 26 60C26 63.308 28.692 66 32 66C35.308 66 38 63.308 38 60C38 56.692 35.308 54 32 54ZM32 62C30.898 62 30 61.104 30 60C30 58.896 30.898 58 32 58C33.102 58 34 58.896 34 60C34 61.104 33.102 62 32 62Z" fill="black"/>
<path d="M118 68V72C125.72 72 132 65.718 132 58H128C128 63.514 123.514 68 118 68Z" fill="black"/>
<path d="M78 74H82C84.206 74 86 75.794 86 78H90C90 73.588 86.412 70 82 70V66H78V70C73.588 70 70 73.588 70 78C70 82.412 73.588 86 78 86H82C84.206 86 86 87.794 86 90C86 92.206 84.206 94 82 94H78C75.794 94 74 92.206 74 90H70C70 94.412 73.588 98 78 98V102H82V98C86.412 98 90 94.412 90 90C90 85.588 86.412 82 82 82H78C75.794 82 74 80.206 74 78C74 75.794 75.794 74 78 74Z" fill="black"/>
<path d="M82 58H78V62H82V58Z" fill="black"/>
<path d="M90 58H86V62H90V58Z" fill="black"/>
<path d="M74 58H70V62H74V58Z" fill="black"/>
<path d="M98 66H94V70H98V66Z" fill="black"/>
<path d="M98 74H94V78H98V74Z" fill="black"/>
<path d="M98 82H94V86H98V82Z" fill="black"/>
<path d="M98 90H94V94H98V90Z" fill="black"/>
<path d="M98 98H94V102H98V98Z" fill="black"/>
<path d="M66 66H62V70H66V66Z" fill="black"/>
<path d="M66 74H62V78H66V74Z" fill="black"/>
<path d="M66 82H62V86H66V82Z" fill="black"/>
<path d="M66 90H62V94H66V90Z" fill="black"/>
<path d="M66 98H62V102H66V98Z" fill="black"/>
<path d="M90 106H86V110H90V106Z" fill="black"/>
<path d="M82 106H78V110H82V106Z" fill="black"/>
<path d="M74 106H70V110H74V106Z" fill="black"/>
</g>
<defs>
<filter id="filter0_d_21_99" x="0" y="0" width="136" height="136" filterUnits="userSpaceOnUse" color-interpolation-filters="sRGB">
<feFlood flood-opacity="0" result="BackgroundImageFix"/>
<feColorMatrix in="SourceAlpha" type="matrix" values="0 0 0 0 0 0 0 0 0 0 0 0 0 0 0 0 0 0 127 0" result="hardAlpha"/>
<feOffset dy="4"/>
<feGaussianBlur stdDeviation="2"/>
<feColorMatrix type="matrix" values="0 0 0 0 0.808398 0 0 0 0 0.700612 0 0 0 0 0.700612 0 0 0 1 0"/>
<feBlend mode="normal" in2="BackgroundImageFix" result="effect1_dropShadow_21_99"/>
<feBlend mode="normal" in="SourceGraphic" in2="effect1_dropShadow_21_99" result="shape"/>
</filter>
</defs>
</svg>
