<?xml version="1.0" encoding="utf-8"?>
<!-- Generator: Adobe Illustrator 16.0.3, SVG Export Plug-In . SVG Version: 6.00 Build 0)  -->
<!DOCTYPE svg PUBLIC "-//W3C//DTD SVG 1.1//EN" "http://www.w3.org/Graphics/SVG/1.1/DTD/svg11.dtd">
<svg version="1.1" id="Capa_1" xmlns="http://www.w3.org/2000/svg" xmlns:xlink="http://www.w3.org/1999/xlink" x="0px" y="0px"
	 width="512px" height="512px" viewBox="0 0 512 512" enable-background="new 0 0 512 512" xml:space="preserve">
<g id="logo1">
	<g id="mancha_1_">
		<linearGradient id="SVGID_1_" gradientUnits="userSpaceOnUse" x1="167.9185" y1="252.397" x2="159.2172" y2="236.8263">
			<stop  offset="0" style="stop-color:#5B106D"/>
			<stop  offset="1" style="stop-color:#1C87B8"/>
		</linearGradient>
		
			<path fill="url(#SVGID_1_)" stroke="#FFFFFF" stroke-width="3" stroke-linecap="round" stroke-linejoin="round" stroke-miterlimit="10" d="
			M171.735,242.32c-0.372-0.37-0.804-0.66-1.298-0.869c-0.495-0.209-1.026-0.314-1.597-0.314h-12.262v8.185h12.262
			c0.57,0,1.102-0.104,1.597-0.314c0.494-0.209,0.926-0.499,1.298-0.869c0.37-0.37,0.659-0.809,0.869-1.313
			c0.209-0.503,0.313-1.04,0.313-1.61s-0.104-1.103-0.313-1.597C172.395,243.123,172.105,242.691,171.735,242.32z"/>
		<linearGradient id="SVGID_2_" gradientUnits="userSpaceOnUse" x1="300.4932" y1="259.9072" x2="295.1277" y2="250.3058">
			<stop  offset="0" style="stop-color:#5B106D"/>
			<stop  offset="1" style="stop-color:#1C87B8"/>
		</linearGradient>
		
			<path fill="url(#SVGID_2_)" stroke="#FFFFFF" stroke-width="3" stroke-linecap="round" stroke-linejoin="round" stroke-miterlimit="10" d="
			M300.864,250.005c-1.065,0-2.067,0.195-3.01,0.585c-0.94,0.39-1.758,0.946-2.45,1.669c-0.695,0.722-1.241,1.591-1.642,2.608
			c-0.398,1.017-0.599,2.163-0.599,3.436c0,0.285,0.015,0.608,0.043,0.97c0.03,0.361,0.076,0.728,0.143,1.098
			c0.066,0.371,0.147,0.727,0.243,1.069c0.095,0.342,0.219,0.646,0.371,0.912l9.067-12.033c-0.361-0.133-0.718-0.218-1.069-0.256
			C301.609,250.024,301.244,250.005,300.864,250.005z"/>
		<linearGradient id="SVGID_3_" gradientUnits="userSpaceOnUse" x1="167.9111" y1="268.7363" x2="159.226" y2="253.1946">
			<stop  offset="0" style="stop-color:#5B106D"/>
			<stop  offset="1" style="stop-color:#1C87B8"/>
		</linearGradient>
		
			<path fill="url(#SVGID_3_)" stroke="#FFFFFF" stroke-width="3" stroke-linecap="round" stroke-linejoin="round" stroke-miterlimit="10" d="
			M171.735,258.688c-0.372-0.371-0.804-0.661-1.298-0.87c-0.495-0.209-1.026-0.313-1.597-0.313h-12.262v8.154h12.262
			c0.57,0,1.102-0.104,1.597-0.313c0.494-0.21,0.926-0.499,1.298-0.871c0.37-0.37,0.659-0.803,0.869-1.297
			c0.209-0.494,0.313-1.026,0.313-1.597s-0.104-1.103-0.313-1.597C172.395,259.491,172.105,259.058,171.735,258.688z"/>
		<linearGradient id="SVGID_4_" gradientUnits="userSpaceOnUse" x1="353.4404" y1="463.8809" x2="111.1156" y2="30.2471">
			<stop  offset="0" style="stop-color:#5B106D"/>
			<stop  offset="1" style="stop-color:#1C87B8"/>
		</linearGradient>
		
			<path fill="url(#SVGID_4_)" stroke="#FFFFFF" stroke-width="3" stroke-linecap="round" stroke-linejoin="round" stroke-miterlimit="10" d="
			M357.501,225.465c15.021-3.903,27.986-7.971,39.334-19.328c12.211-12.223,19.072-29.906,9.329-45.628
			c-8.721-14.073-29.135-22.57-45.569-19.874c-13.386,2.196-24.715,10.429-33.851,20.083c-7.178,7.588-15.59,25.887-27.265,26.471
			c-13.041,0.65-13.692-10.432-7.825-30.565c5.409-18.56-18.165-27.007-32.026-25.646c-19.592,1.923-18.311,18.564-17.897,33.724
			c0.565,20.754-18.856,17.386-25.102,0.143c-0.481-1.328-0.843-2.685-1.061-4.047c-3.832-24.051,5.15-68.434-22.164-82.183
			c-7.37-3.709-20.512-2.242-27.836,0.652c-33.479,13.228-27.881,55.298-11.49,79.888c6.521,9.78,12.388,31.296,5.217,42.381
			c-18.145,28.05-48.896-18.207-61.318-27.812c-17.482-13.517-35.506-3.522-42.353,16.074
			c-18.907,54.121,37.817,58.031,62.595,61.944c24.776,3.911,5.867,22.819-8.479,28.036c-14.345,5.218-41.077,11.737-47.598,43.687
			c-3.811,18.673,6.208,34.415,26.605,33.52c15.794-0.695,28.526-10.649,37.794-22.753c8.856-11.567,11.997-28.854,23.548-38.046
			c4.363-3.473,10.533-4.148,14.432,0.553c4.939,5.962,0.44,13.807-2.482,19.529c-6.201,12.132-12.94,24.908-15.134,38.491
			c-3.261,20.215,17.605,31.95,37.166,26.735c22.489-5.995,14.356-45.656,17.798-61.687c1.143-5.321,3.023-12.184,8.351-14.812
			c4.893-2.413,16.308-0.007,20.027,3.881c5.493,5.744,4.153,14.006,2.863,21.085c-3.021,16.588-8.479,32.159-13.178,48.271
			c-4.563,15.65-1.955,63.248,37.817,71.073c11.765,2.313,30.743-1.261,39.87-9.288c19.154-16.848,20.264-49.824,7.557-70.52
			c-10.164-16.554-26.076-30.724-27.607-51.225c-0.618-8.262,4.899-14.045,13.024-13.311c8.677,0.785,14.436,9.071,18.664,15.891
			c20.214,32.604,50.861,26.733,63.248,5.217c9.253-16.065-1.398-39.388-15.63-48.905c-10.605-7.093-39.874-14.294-31.715-32.941
			C330.486,232.05,345.919,228.473,357.501,225.465z M178.564,254.867c0.531,0.618,0.988,1.298,1.368,2.037
			c0.38,0.742,0.671,1.518,0.87,2.326c0.199,0.807,0.3,1.592,0.3,2.352c0,1.692-0.324,3.279-0.971,4.762
			c-0.646,1.483-1.525,2.779-2.637,3.892c-1.112,1.112-2.41,1.992-3.892,2.639c-1.483,0.646-3.07,0.97-4.763,0.97h-20.445v-40.89
			h20.445c1.692,0,3.279,0.323,4.763,0.969c1.481,0.647,2.779,1.526,3.892,2.638c1.111,1.113,1.991,2.409,2.637,3.892
			c0.646,1.483,0.971,3.071,0.971,4.763c0,0.761-0.105,1.539-0.314,2.338s-0.504,1.568-0.884,2.31
			c-0.381,0.742-0.837,1.417-1.368,2.024c-0.533,0.61-1.122,1.112-1.769,1.512C177.434,253.76,178.031,254.249,178.564,254.867z
			 M216.032,273.844h-1.882l-3.022-4.191c-0.741,0.665-1.526,1.287-2.353,1.866c-0.827,0.581-1.696,1.085-2.609,1.513
			c-0.912,0.427-1.849,0.765-2.808,1.012c-0.961,0.246-1.935,0.371-2.924,0.371c-2.147,0-4.168-0.362-6.059-1.084
			c-1.892-0.722-3.546-1.772-4.963-3.151c-1.415-1.379-2.532-3.065-3.351-5.062c-0.817-1.995-1.225-4.267-1.225-6.814
			c0-2.376,0.407-4.557,1.225-6.544c0.818-1.986,1.936-3.691,3.351-5.118c1.417-1.426,3.071-2.533,4.963-3.322
			c1.891-0.788,3.911-1.184,6.059-1.184c0.989,0,1.968,0.125,2.937,0.371c0.971,0.248,1.912,0.589,2.824,1.026
			s1.781,0.951,2.609,1.54c0.826,0.59,1.601,1.227,2.323,1.91l3.022-3.621h1.882V273.844z M243.179,251.117h-11.806v9.067
			c0,0.817,0.152,1.583,0.456,2.296s0.723,1.336,1.255,1.868c0.532,0.531,1.159,0.955,1.883,1.269c0.722,0.313,1.491,0.47,2.31,0.47
			h5.902v7.757h-5.902c-1.883,0-3.65-0.356-5.305-1.07c-1.653-0.713-3.104-1.691-4.349-2.937s-2.224-2.694-2.938-4.349
			c-0.712-1.653-1.068-3.421-1.068-5.304v-9.067h-3.793v-7.756h3.793v-12.204h7.756v12.204h11.806V251.117z M268.755,251.117H256.95
			v9.067c0,0.817,0.152,1.583,0.456,2.296c0.305,0.713,0.723,1.336,1.255,1.868c0.533,0.531,1.159,0.955,1.883,1.269
			c0.722,0.313,1.492,0.47,2.31,0.47h5.901v7.757h-5.901c-1.882,0-3.65-0.356-5.305-1.07c-1.652-0.713-3.103-1.691-4.348-2.937
			c-1.244-1.245-2.224-2.694-2.937-4.349c-0.713-1.653-1.069-3.421-1.069-5.304v-9.067h-3.792v-7.756h3.792v-12.204h7.755v12.204
			h11.805V251.117z M280.961,273.844h-7.843v-42.687h7.843V273.844z M299.951,266.559c0.305,0.027,0.607,0.041,0.913,0.041
			c0.76,0,1.492-0.103,2.195-0.313c0.704-0.209,1.363-0.509,1.98-0.899c0.618-0.389,1.171-0.863,1.656-1.425
			c0.482-0.56,0.878-1.183,1.183-1.868l5.703,5.732c-0.724,1.025-1.554,1.948-2.496,2.765c-0.941,0.819-1.957,1.512-3.051,2.082
			s-2.242,1.003-3.45,1.298s-2.448,0.442-3.721,0.442c-2.148,0-4.169-0.399-6.06-1.198c-1.892-0.799-3.546-1.91-4.961-3.337
			c-1.417-1.424-2.534-3.122-3.351-5.089c-0.818-1.968-1.227-4.13-1.227-6.487c0-2.413,0.408-4.619,1.227-6.615
			c0.816-1.996,1.934-3.696,3.351-5.104c1.415-1.406,3.069-2.5,4.961-3.279c1.891-0.779,3.911-1.17,6.06-1.17
			c1.272,0,2.518,0.152,3.735,0.456c1.217,0.305,2.371,0.741,3.463,1.313c1.095,0.57,2.116,1.269,3.068,2.096
			c0.949,0.826,1.784,1.754,2.507,2.78l-14.599,17.593C299.344,266.468,299.646,266.53,299.951,266.559z"/>
		<linearGradient id="SVGID_5_" gradientUnits="userSpaceOnUse" x1="205.3032" y1="267.2236" x2="194.8379" y2="248.4963">
			<stop  offset="0" style="stop-color:#5B106D"/>
			<stop  offset="1" style="stop-color:#1C87B8"/>
		</linearGradient>
		
			<path fill="url(#SVGID_5_)" stroke="#FFFFFF" stroke-width="3" stroke-linecap="round" stroke-linejoin="round" stroke-miterlimit="10" d="
			M205.91,252.558c-0.704-0.771-1.526-1.389-2.467-1.854c-0.941-0.466-1.944-0.699-3.009-0.699s-2.066,0.181-3.009,0.542
			c-0.94,0.36-1.758,0.894-2.451,1.597c-0.694,0.704-1.24,1.574-1.64,2.609c-0.399,1.037-0.599,2.22-0.599,3.55
			c0,1.331,0.199,2.515,0.599,3.55c0.399,1.037,0.945,1.907,1.64,2.608c0.693,0.704,1.511,1.236,2.451,1.599
			c0.942,0.359,1.944,0.54,3.009,0.54s2.067-0.232,3.009-0.697c0.94-0.466,1.763-1.084,2.467-1.854
			c0.703-0.771,1.259-1.654,1.668-2.652c0.409-0.997,0.613-2.028,0.613-3.094c0-1.064-0.204-2.096-0.613-3.093
			C207.169,254.211,206.613,253.326,205.91,252.558z"/>
		<linearGradient id="SVGID_6_" gradientUnits="userSpaceOnUse" x1="452.625" y1="408.4932" x2="210.6789" y2="-24.4628">
			<stop  offset="0" style="stop-color:#5B106D"/>
			<stop  offset="1" style="stop-color:#1C87B8"/>
		</linearGradient>
		
			<circle fill="url(#SVGID_6_)" stroke="#FFFFFF" stroke-width="3" stroke-linecap="round" stroke-linejoin="round" stroke-miterlimit="10" cx="268.834" cy="79.605" r="17.606"/>
		<linearGradient id="SVGID_7_" gradientUnits="userSpaceOnUse" x1="228.8008" y1="533.584" x2="-13.1579" y2="100.6055">
			<stop  offset="0" style="stop-color:#5B106D"/>
			<stop  offset="1" style="stop-color:#1C87B8"/>
		</linearGradient>
		
			<path fill="url(#SVGID_7_)" stroke="#FFFFFF" stroke-width="3" stroke-linecap="round" stroke-linejoin="round" stroke-miterlimit="10" d="
			M179.507,420.287c0,7.743-6.275,14.021-14.018,14.021c-7.741,0-14.02-6.278-14.02-14.021c0-7.74,6.278-14.016,14.02-14.016
			C173.231,406.271,179.507,412.547,179.507,420.287z"/>
		<linearGradient id="SVGID_8_" gradientUnits="userSpaceOnUse" x1="179.4771" y1="561.1396" x2="-62.4725" y2="128.1775">
			<stop  offset="0" style="stop-color:#5B106D"/>
			<stop  offset="1" style="stop-color:#1C87B8"/>
		</linearGradient>
		
			<path fill="url(#SVGID_8_)" stroke="#FFFFFF" stroke-width="3" stroke-linecap="round" stroke-linejoin="round" stroke-miterlimit="10" d="
			M32.151,273.583c0,7.385-5.985,13.366-13.366,13.366c-7.384,0-13.368-5.981-13.368-13.366c0-7.382,5.984-13.364,13.368-13.364
			C26.166,260.219,32.151,266.201,32.151,273.583z"/>
	</g>
	<g id="Paint">
		<linearGradient id="SVGID_9_" gradientUnits="userSpaceOnUse" x1="322.6963" y1="253.3984" x2="558.5951" y2="253.3984">
			<stop  offset="0" style="stop-color:#5B106D"/>
			<stop  offset="1" style="stop-color:#1C87B8"/>
		</linearGradient>
		<path fill="url(#SVGID_9_)" stroke="#FFFFFF" stroke-width="3" stroke-miterlimit="10" d="M375.187,273.844h-8.184v-40.89h16.368
			c1.501,0,2.946,0.195,4.334,0.585c1.388,0.389,2.686,0.94,3.893,1.653c1.207,0.713,2.309,1.568,3.308,2.565
			c0.998,0.999,1.853,2.107,2.567,3.323c0.713,1.217,1.262,2.52,1.651,3.906c0.39,1.388,0.586,2.833,0.586,4.335
			c0,2.243-0.428,4.358-1.282,6.345c-0.856,1.986-2.025,3.721-3.509,5.203c-1.482,1.482-3.217,2.652-5.203,3.507
			c-1.985,0.855-4.103,1.283-6.345,1.283h-8.185V273.844z M375.187,241.137v16.368h8.185c1.122,0,2.178-0.214,3.165-0.643
			c0.989-0.427,1.853-1.012,2.595-1.753c0.741-0.741,1.327-1.61,1.754-2.609c0.428-0.998,0.641-2.058,0.641-3.179
			c0-1.122-0.213-2.182-0.641-3.18c-0.427-0.997-1.013-1.867-1.754-2.609c-0.742-0.741-1.605-1.325-2.595-1.754
			c-0.987-0.427-2.043-0.642-3.165-0.642H375.187z"/>
		<linearGradient id="SVGID_10_" gradientUnits="userSpaceOnUse" x1="322.6943" y1="258.2744" x2="558.5966" y2="258.2744">
			<stop  offset="0" style="stop-color:#5B106D"/>
			<stop  offset="1" style="stop-color:#1C87B8"/>
		</linearGradient>
		<path fill="url(#SVGID_10_)" stroke="#FFFFFF" stroke-width="3" stroke-miterlimit="10" d="M433.244,273.844h-1.884l-3.021-4.191
			c-0.741,0.665-1.526,1.287-2.353,1.866c-0.827,0.581-1.696,1.085-2.608,1.513c-0.912,0.427-1.85,0.765-2.81,1.012
			c-0.959,0.246-1.935,0.371-2.922,0.371c-2.149,0-4.167-0.362-6.06-1.084s-3.546-1.772-4.961-3.151
			c-1.417-1.379-2.535-3.065-3.353-5.062c-0.816-1.995-1.226-4.267-1.226-6.814c0-2.376,0.409-4.557,1.226-6.544
			c0.817-1.986,1.936-3.691,3.353-5.118c1.415-1.426,3.068-2.533,4.961-3.322c1.893-0.788,3.91-1.184,6.06-1.184
			c0.987,0,1.966,0.125,2.936,0.371c0.97,0.248,1.912,0.589,2.824,1.026s1.781,0.951,2.609,1.54c0.827,0.59,1.602,1.227,2.323,1.91
			l3.021-3.621h1.884V273.844z M425.403,258.303c0-1.063-0.205-2.096-0.614-3.093c-0.409-0.999-0.966-1.884-1.668-2.652
			c-0.704-0.771-1.526-1.389-2.467-1.854c-0.941-0.466-1.944-0.699-3.008-0.699c-1.064,0-2.068,0.181-3.009,0.542
			c-0.941,0.36-1.76,0.894-2.453,1.597c-0.692,0.704-1.24,1.574-1.639,2.609c-0.399,1.037-0.599,2.22-0.599,3.55
			c0,1.331,0.199,2.515,0.599,3.55c0.398,1.037,0.946,1.907,1.639,2.608c0.693,0.704,1.512,1.236,2.453,1.599
			c0.94,0.359,1.944,0.54,3.009,0.54c1.063,0,2.066-0.232,3.008-0.697c0.94-0.466,1.763-1.084,2.467-1.854
			c0.702-0.771,1.259-1.654,1.668-2.652C425.198,260.399,425.403,259.367,425.403,258.303z"/>
		<linearGradient id="SVGID_11_" gradientUnits="userSpaceOnUse" x1="322.6914" y1="251.8301" x2="558.5983" y2="251.8301">
			<stop  offset="0" style="stop-color:#5B106D"/>
			<stop  offset="1" style="stop-color:#1C87B8"/>
		</linearGradient>
		<path fill="url(#SVGID_11_)" stroke="#FFFFFF" stroke-width="3" stroke-miterlimit="10" d="M448.356,235.007
			c0,0.723-0.138,1.397-0.414,2.024s-0.65,1.174-1.126,1.639c-0.476,0.467-1.03,0.837-1.668,1.112
			c-0.638,0.276-1.318,0.413-2.04,0.413s-1.402-0.137-2.038-0.413c-0.637-0.275-1.188-0.646-1.653-1.112
			c-0.467-0.465-0.838-1.012-1.111-1.639c-0.276-0.627-0.415-1.302-0.415-2.024c0-0.703,0.139-1.374,0.415-2.01
			c0.273-0.636,0.645-1.188,1.111-1.653c0.465-0.466,1.017-0.837,1.653-1.112c0.636-0.277,1.316-0.414,2.038-0.414
			s1.402,0.137,2.04,0.414c0.638,0.275,1.192,0.646,1.668,1.112c0.476,0.465,0.85,1.017,1.126,1.653
			C448.219,233.633,448.356,234.304,448.356,235.007z M447.016,273.844h-7.841v-30.539h7.841V273.844z"/>
		<linearGradient id="SVGID_12_" gradientUnits="userSpaceOnUse" x1="322.6885" y1="258.2754" x2="558.598" y2="258.2754">
			<stop  offset="0" style="stop-color:#5B106D"/>
			<stop  offset="1" style="stop-color:#1C87B8"/>
		</linearGradient>
		<path fill="url(#SVGID_12_)" stroke="#FFFFFF" stroke-width="3" stroke-miterlimit="10" d="M460.731,273.844h-7.785v-30.539h1.884
			l2.565,2.965c1.253-1.14,2.675-2.019,4.263-2.637c1.587-0.618,3.246-0.927,4.975-0.927c1.864,0,3.622,0.356,5.275,1.069
			c1.654,0.713,3.1,1.692,4.335,2.937c1.234,1.245,2.21,2.699,2.923,4.362c0.715,1.664,1.07,3.437,1.07,5.318v17.451h-7.786v-17.451
			c0-0.799-0.152-1.555-0.456-2.268c-0.305-0.712-0.724-1.335-1.255-1.866c-0.531-0.533-1.148-0.951-1.853-1.255
			c-0.704-0.305-1.454-0.457-2.254-0.457c-0.816,0-1.585,0.152-2.309,0.457c-0.722,0.304-1.351,0.722-1.882,1.255
			c-0.533,0.531-0.951,1.154-1.255,1.866c-0.304,0.713-0.456,1.469-0.456,2.268V273.844z"/>
		<linearGradient id="SVGID_13_" gradientUnits="userSpaceOnUse" x1="322.6934" y1="252.5005" x2="558.5942" y2="252.5005">
			<stop  offset="0" style="stop-color:#5B106D"/>
			<stop  offset="1" style="stop-color:#1C87B8"/>
		</linearGradient>
		<path fill="url(#SVGID_13_)" stroke="#FFFFFF" stroke-width="3" stroke-miterlimit="10" d="M500.682,273.844
			c-1.884,0-3.652-0.356-5.305-1.07c-1.653-0.713-3.104-1.691-4.349-2.937c-1.246-1.245-2.225-2.694-2.938-4.349
			c-0.713-1.653-1.068-3.421-1.068-5.304v-9.067h-3.793v-7.756h3.793v-12.204h7.755v12.204h11.806v7.756h-11.806v9.067
			c0,0.817,0.153,1.583,0.456,2.296c0.304,0.713,0.724,1.336,1.255,1.868c0.532,0.531,1.16,0.955,1.884,1.269
			c0.722,0.313,1.49,0.47,2.31,0.47h5.901v7.757H500.682z"/>
	</g>
	<g id="brillos_2_">
		<g id="brillos_1_">
			<g>
				<path fill="#FFFFFF" d="M59.864,201.288c0,0,0.224-0.758,0.614-2.085c0.201-0.662,0.428-1.467,0.839-2.353
					c0.189-0.449,0.391-0.928,0.604-1.432c0.11-0.252,0.223-0.51,0.338-0.775c0.138-0.251,0.28-0.508,0.424-0.771
					c0.586-1.046,1.163-2.225,2.01-3.323c0.407-0.56,0.789-1.164,1.248-1.729c0.484-0.547,0.979-1.106,1.482-1.675
					c0.48-0.593,1.094-1.074,1.668-1.609c0.584-0.525,1.156-1.083,1.846-1.508c0.669-0.446,1.316-0.942,2.02-1.354
					c0.726-0.377,1.455-0.756,2.185-1.135c1.531-0.595,3.079-1.191,4.691-1.43c0.398-0.078,0.795-0.156,1.189-0.233
					c0.398-0.047,0.801-0.042,1.198-0.064c0.794-0.005,1.579-0.121,2.345-0.028c0.766,0.082,1.519,0.149,2.251,0.243
					c0.731,0.09,1.417,0.345,2.096,0.503c1.378,0.278,2.556,0.899,3.669,1.363c0.565,0.217,1.064,0.508,1.529,0.803
					c0.466,0.287,0.909,0.559,1.325,0.814c0.854,0.468,1.481,1.053,2.026,1.483c1.077,0.881,1.671,1.394,1.671,1.394
					s-0.688-0.387-1.893-1.063c-0.599-0.335-1.292-0.793-2.179-1.146c-0.432-0.192-0.892-0.397-1.377-0.614
					c-0.24-0.11-0.486-0.223-0.738-0.338c-0.252-0.114-0.532-0.177-0.805-0.271c-1.109-0.326-2.268-0.799-3.572-0.972
					c-0.646-0.098-1.294-0.292-1.978-0.323c-0.684-0.023-1.376-0.076-2.081-0.115c-0.705-0.058-1.419,0.09-2.141,0.124
					c-0.36,0.037-0.725,0.044-1.085,0.104c-0.357,0.077-0.717,0.155-1.078,0.232c-1.461,0.231-2.861,0.809-4.25,1.36
					c-0.673,0.337-1.345,0.674-2.016,1.01c-0.653,0.368-1.255,0.822-1.881,1.223c-0.639,0.385-1.189,0.886-1.758,1.348
					c-0.557,0.477-1.155,0.896-1.63,1.437c-0.503,0.511-0.998,1.013-1.482,1.505c-0.475,0.502-0.877,1.051-1.306,1.555
					c-0.877,0.996-1.542,2.063-2.216,3.013c-0.166,0.24-0.329,0.474-0.488,0.704c-0.138,0.24-0.273,0.475-0.405,0.703
					c-0.269,0.458-0.523,0.893-0.762,1.301c-0.501,0.806-0.867,1.566-1.167,2.188C60.221,200.583,59.864,201.288,59.864,201.288z"/>
			</g>
			<g>
				<path fill="#FFFFFF" d="M265.646,320.407c0,0,0.077,0.484,0.221,1.394c0.072,0.454,0.161,1.015,0.266,1.673
					c0.093,0.662,0.324,1.394,0.504,2.227c0.1,0.414,0.203,0.85,0.313,1.308c0.112,0.456,0.291,0.92,0.442,1.41
					c0.326,0.976,0.631,2.044,1.117,3.131c0.225,0.548,0.457,1.113,0.696,1.696c0.241,0.581,0.554,1.152,0.838,1.753
					c0.303,0.592,0.569,1.219,0.907,1.83s0.683,1.236,1.036,1.875c1.446,2.533,3.164,5.191,5.112,7.921
					c1.929,2.742,4.092,5.55,6.304,8.489c2.206,2.943,4.527,5.972,6.692,9.21c0.529,0.818,1.061,1.641,1.594,2.464l0.42,0.659
					l0.355,0.638l0.711,1.279c1.005,1.651,1.775,3.551,2.606,5.388c1.423,3.739,2.607,7.565,3.215,11.448
					c0.754,3.855,0.888,7.732,0.899,11.457c-0.145,3.728-0.488,7.33-1.258,10.663c-0.185,0.834-0.366,1.656-0.546,2.466
					c-0.218,0.8-0.478,1.577-0.717,2.344c-0.247,0.764-0.472,1.521-0.727,2.251c-0.299,0.716-0.593,1.417-0.88,2.104
					c-0.291,0.685-0.56,1.362-0.853,2.01c-0.338,0.627-0.667,1.24-0.988,1.838c-0.324,0.594-0.64,1.173-0.947,1.736
					c-0.315,0.557-0.7,1.053-1.03,1.557c-0.703,0.98-1.27,1.96-1.953,2.749c-0.676,0.791-1.297,1.519-1.857,2.175
					c-0.532,0.681-1.109,1.194-1.608,1.642c-0.493,0.451-0.913,0.835-1.253,1.146c-0.679,0.62-1.04,0.951-1.04,0.951
					s0.336-0.358,0.965-1.03c0.314-0.335,0.701-0.748,1.156-1.233c0.455-0.483,0.993-1.025,1.484-1.729
					c0.517-0.68,1.088-1.432,1.71-2.251c0.627-0.813,1.131-1.815,1.764-2.814c0.296-0.513,0.645-1.016,0.923-1.58
					c0.269-0.569,0.545-1.154,0.829-1.755c0.286-0.598,0.58-1.211,0.882-1.838c0.26-0.645,0.494-1.319,0.751-1.999
					c0.253-0.681,0.511-1.376,0.773-2.084c0.219-0.724,0.406-1.472,0.616-2.226c0.197-0.758,0.436-1.517,0.623-2.302
					c0.15-0.795,0.303-1.601,0.458-2.418c0.653-3.262,0.867-6.774,0.961-10.393c-0.002-0.905-0.063-1.818-0.091-2.737
					c-0.05-0.918-0.032-1.847-0.171-2.77c-0.222-1.851-0.375-3.731-0.776-5.591c-0.605-3.752-1.786-7.452-3.163-11.028
					c-0.78-1.738-1.457-3.495-2.476-5.196l-0.704-1.283l-0.352-0.641l-0.364-0.572c-0.518-0.812-1.034-1.62-1.549-2.426
					c-2.12-3.188-4.335-6.261-6.497-9.233c-2.171-2.965-4.25-5.866-6.12-8.694c-0.951-1.4-1.815-2.81-2.65-4.17
					c-0.79-1.391-1.582-2.717-2.24-4.048c-0.67-1.324-1.313-2.592-1.81-3.854c-0.255-0.627-0.537-1.223-0.748-1.827
					c-0.21-0.605-0.413-1.193-0.609-1.764c-0.429-1.126-0.678-2.23-0.95-3.234c-0.126-0.505-0.277-0.98-0.365-1.45
					c-0.084-0.471-0.165-0.92-0.241-1.346c-0.36-1.695-0.421-3.041-0.496-3.959C265.686,320.896,265.646,320.407,265.646,320.407z"
					/>
			</g>
			<g>
				<path fill="#FFFFFF" d="M339.182,282.293c0,0,0.176,0.102,0.506,0.291c0.328,0.193,0.822,0.451,1.41,0.858
					c0.604,0.387,1.31,0.894,2.096,1.508c0.779,0.621,1.644,1.348,2.523,2.209c0.88,0.859,1.82,1.814,2.711,2.912
					c0.911,1.081,1.82,2.269,2.667,3.562c0.858,1.284,1.674,2.663,2.417,4.108c0.728,1.454,1.396,2.968,1.982,4.516
					c1.112,3.115,1.882,6.37,2.1,9.479c0.129,1.551,0.124,3.061,0.004,4.482c-0.081,1.424-0.339,2.754-0.607,3.963
					c-0.148,0.603-0.315,1.174-0.469,1.716c-0.192,0.529-0.375,1.032-0.546,1.505c-0.391,0.926-0.76,1.713-1.119,2.335
					c-0.318,0.639-0.665,1.09-0.863,1.413c-0.209,0.317-0.32,0.487-0.32,0.487s0.078-0.188,0.225-0.539
					c0.142-0.354,0.375-0.856,0.597-1.526c0.256-0.655,0.484-1.478,0.755-2.409c0.105-0.473,0.218-0.977,0.336-1.508
					c0.081-0.538,0.196-1.096,0.275-1.684c0.135-1.181,0.254-2.458,0.245-3.814c0.017-1.354-0.095-2.78-0.265-4.245
					c-0.152-1.469-0.501-2.96-0.837-4.472c-0.362-1.509-0.849-3.013-1.386-4.496c-0.54-1.484-1.157-2.941-1.834-4.344
					c-0.705-1.388-1.39-2.765-2.174-4.029c-0.775-1.268-1.551-2.482-2.356-3.587c-0.794-1.112-1.604-2.123-2.37-3.043
					c-1.545-1.829-2.982-3.24-4.024-4.183c-0.515-0.479-0.944-0.842-1.233-1.087C339.336,282.425,339.182,282.293,339.182,282.293z"
					/>
			</g>
			<g>
				<path fill="#FFFFFF" d="M161.803,98.806c0,0,0.394-0.164,1.132-0.471c0.746-0.288,1.854-0.702,3.298-1.1
					c1.446-0.395,3.226-0.799,5.295-1.121c2.069-0.319,4.436-0.557,7.034-0.494c2.587,0.078,5.451,0.334,8.323,1.449
					c0.365,0.155,0.733,0.311,1.103,0.468c0.327,0.176,0.656,0.353,0.986,0.531c0.662,0.362,1.335,0.687,2.001,1.161
					c1.373,0.854,2.638,1.867,3.858,2.973c2.424,2.235,4.532,4.974,6.16,8.011c1.641,3.033,2.864,6.318,3.784,9.66
					c0.9,3.351,1.5,6.759,1.926,10.12c0.435,3.362,0.626,6.686,0.774,9.893c0.27,6.419,0.179,12.393,0.152,17.503
					c0.002,2.554-0.026,4.896,0.002,6.97c0.018,2.075,0.087,3.881,0.164,5.369c0.103,1.484,0.157,2.657,0.25,3.45
					c0.075,0.796,0.116,1.221,0.116,1.221s-0.078-0.419-0.224-1.206c-0.154-0.786-0.341-1.946-0.529-3.431
					c-0.359-2.969-0.724-7.234-0.927-12.351c-0.231-5.115-0.356-11.08-0.762-17.43c-0.198-3.175-0.503-6.444-0.931-9.74
					c-0.44-3.293-1.053-6.612-1.94-9.843c-0.867-3.234-2.02-6.387-3.555-9.271c-1.535-2.879-3.422-5.507-5.665-7.646
					c-1.121-1.065-2.31-2.033-3.518-2.855c-0.57-0.447-1.258-0.812-1.903-1.193c-0.325-0.189-0.647-0.377-0.968-0.564
					c-0.31-0.142-0.617-0.283-0.922-0.423c-2.575-1.093-5.31-1.489-7.807-1.683c-5.037-0.316-9.286,0.265-12.188,0.849
					c-1.453,0.313-2.585,0.595-3.352,0.825C162.209,98.677,161.803,98.806,161.803,98.806z"/>
			</g>
			<g>
				<path fill="#FFFFFF" d="M267.25,67.83c0,0,0.326-0.067,0.896-0.153c0.282-0.051,0.629-0.088,1.044-0.073
					c0.413-0.005,0.893-0.012,1.389,0.078c0.253,0.035,0.517,0.071,0.79,0.108c0.268,0.062,0.54,0.143,0.824,0.218
					c0.577,0.131,1.145,0.39,1.742,0.638c0.56,0.316,1.182,0.588,1.72,1.01c0.576,0.37,1.074,0.855,1.593,1.315
					c0.461,0.518,0.947,1.016,1.316,1.592c0.424,0.536,0.694,1.16,1.012,1.719c0.247,0.598,0.509,1.164,0.638,1.742
					c0.075,0.283,0.148,0.559,0.219,0.825c0.037,0.273,0.073,0.537,0.107,0.791c0.091,0.499,0.082,0.968,0.076,1.378
					c0.015,0.407-0.021,0.762-0.073,1.052c-0.085,0.58-0.153,0.899-0.153,0.899s-0.101-0.325-0.243-0.872
					c-0.057-0.275-0.161-0.602-0.288-0.969c-0.119-0.368-0.246-0.778-0.432-1.209c-0.16-0.438-0.372-0.891-0.607-1.361
					c-0.201-0.483-0.54-0.931-0.791-1.433c-0.327-0.463-0.638-0.953-1.021-1.402c-0.349-0.474-0.773-0.895-1.174-1.336
					c-0.441-0.4-0.861-0.826-1.335-1.175c-0.448-0.384-0.939-0.693-1.402-1.021c-0.502-0.25-0.949-0.591-1.434-0.792
					c-0.235-0.115-0.469-0.219-0.691-0.336c-0.231-0.093-0.455-0.184-0.67-0.27c-0.434-0.187-0.834-0.312-1.198-0.431
					c-0.359-0.125-0.694-0.231-0.978-0.288C267.567,67.93,267.25,67.83,267.25,67.83z"/>
			</g>
			<g>
				<path fill="#FFFFFF" d="M162.382,411.232c0,0,0.294-0.069,0.807-0.157c0.254-0.051,0.566-0.093,0.943-0.084
					c0.375-0.011,0.811-0.024,1.259,0.053c0.23,0.028,0.47,0.058,0.717,0.089c0.243,0.053,0.491,0.124,0.749,0.19
					c0.524,0.114,1.041,0.343,1.583,0.566c0.508,0.284,1.075,0.527,1.563,0.908c0.524,0.334,0.977,0.773,1.447,1.191
					c0.418,0.47,0.859,0.922,1.193,1.446c0.383,0.486,0.625,1.055,0.909,1.563c0.223,0.543,0.454,1.059,0.567,1.584
					c0.065,0.257,0.129,0.507,0.191,0.749c0.03,0.248,0.06,0.487,0.088,0.718c0.076,0.452,0.062,0.878,0.05,1.248
					c0.008,0.369-0.032,0.689-0.083,0.951c-0.088,0.523-0.158,0.811-0.158,0.811s-0.099-0.292-0.239-0.784
					c-0.057-0.246-0.158-0.539-0.277-0.867c-0.114-0.33-0.235-0.696-0.407-1.08c-0.15-0.391-0.346-0.794-0.561-1.213
					c-0.185-0.431-0.493-0.827-0.719-1.274c-0.295-0.412-0.577-0.847-0.919-1.246c-0.313-0.422-0.693-0.797-1.05-1.19
					c-0.394-0.357-0.768-0.737-1.189-1.051c-0.398-0.344-0.834-0.624-1.246-0.92c-0.447-0.226-0.843-0.536-1.275-0.72
					c-0.419-0.214-0.822-0.411-1.213-0.561c-0.388-0.173-0.744-0.292-1.069-0.404c-0.321-0.119-0.621-0.222-0.876-0.277
					C162.667,411.33,162.382,411.232,162.382,411.232z"/>
			</g>
			<g>
				<path fill="#FFFFFF" d="M16.503,264.782c0,0,0.276-0.069,0.757-0.16c0.238-0.051,0.531-0.094,0.886-0.09
					c0.352-0.014,0.763-0.03,1.186,0.038c0.216,0.025,0.442,0.051,0.676,0.078c0.229,0.048,0.462,0.114,0.706,0.175
					c0.495,0.105,0.982,0.317,1.494,0.526c0.48,0.266,1.015,0.492,1.476,0.851c0.494,0.313,0.921,0.728,1.364,1.121
					c0.394,0.442,0.809,0.868,1.122,1.363c0.36,0.459,0.586,0.995,0.852,1.475c0.208,0.512,0.423,0.999,0.526,1.494
					c0.06,0.242,0.119,0.478,0.175,0.706c0.027,0.233,0.053,0.46,0.078,0.676c0.069,0.427,0.051,0.827,0.036,1.176
					c0.003,0.347-0.038,0.647-0.09,0.895c-0.09,0.49-0.161,0.76-0.161,0.76s-0.098-0.274-0.236-0.733
					c-0.056-0.231-0.155-0.505-0.271-0.812c-0.111-0.308-0.228-0.648-0.393-1.007c-0.144-0.363-0.331-0.738-0.534-1.128
					c-0.175-0.4-0.467-0.77-0.679-1.186c-0.277-0.383-0.542-0.785-0.861-1.158c-0.293-0.392-0.646-0.74-0.979-1.107
					c-0.367-0.332-0.714-0.687-1.106-0.979c-0.371-0.321-0.775-0.585-1.158-0.862c-0.417-0.212-0.784-0.506-1.186-0.68
					c-0.39-0.202-0.765-0.391-1.128-0.533c-0.361-0.165-0.692-0.281-0.997-0.391c-0.298-0.115-0.58-0.215-0.819-0.271
					C16.771,264.88,16.503,264.782,16.503,264.782z"/>
			</g>
		</g>
	</g>
</g>
</svg>
