<svg width="128" height="132" viewBox="0 0 128 132" fill="none" xmlns="http://www.w3.org/2000/svg">
<g clip-path="url(#clip0_21_161)" filter="url(#filter0_d_21_161)">
<g filter="url(#filter1_d_21_161)">
<path d="M76.212 80.897H51.7893C49.8733 80.897 48.3143 79.338 48.3143 77.4222V60.4675C48.3143 60.1242 48.4815 59.8022 48.7628 59.6055C49.0438 59.4085 49.4035 59.3607 49.7263 59.4777C50.102 59.614 50.4978 59.683 50.9033 59.683C52.5188 59.683 53.9055 58.5695 54.2008 57.0348C54.296 56.5395 54.7298 56.181 55.2343 56.1808C55.2345 56.1808 55.2345 56.1808 55.2348 56.1808C55.7393 56.1808 56.1725 56.5388 56.2688 57.034C56.5655 58.569 57.9525 59.683 59.5658 59.683C61.195 59.683 62.5835 58.5602 62.8685 57.0132C62.96 56.514 63.3955 56.1513 63.9038 56.151H63.904C64.4115 56.151 64.847 56.5133 64.9398 57.0125C65.2255 58.5595 66.614 59.683 68.2415 59.683C68.823 59.683 69.2943 60.1545 69.2943 60.736C69.2943 61.3173 68.823 61.789 68.2415 61.789C66.492 61.789 64.9105 60.9792 63.9048 59.6932C62.8993 60.9792 61.317 61.789 59.5665 61.789C57.8245 61.789 56.2433 60.9798 55.2355 59.6958C54.2283 60.9798 52.647 61.789 50.9033 61.789C50.7415 61.789 50.5803 61.7822 50.4203 61.7682V77.422C50.4203 78.177 51.0348 78.791 51.7898 78.791H76.2123C76.9673 78.791 77.581 78.177 77.581 77.422V61.7682C77.4218 61.7822 77.2603 61.789 77.0985 61.789C76.517 61.789 76.0453 61.3173 76.0453 60.736C76.0453 60.1545 76.517 59.683 77.0985 59.683C77.5043 59.683 77.8998 59.614 78.2748 59.478C78.5975 59.3608 78.957 59.4085 79.2385 59.6055C79.5198 59.8027 79.6868 60.1243 79.6868 60.4678V77.4222C79.6865 79.3385 78.1275 80.897 76.212 80.897Z" fill="black"/>
<path d="M77.0978 61.789C75.4738 61.789 74.0665 61.04 73.0368 59.6753C72.0603 60.977 70.3335 61.789 68.2408 61.789C66.4913 61.789 64.9098 60.9793 63.9038 59.6933C62.8985 60.9793 61.3163 61.789 59.5655 61.789C57.8238 61.789 56.2425 60.9798 55.2348 59.6958C54.2275 60.9798 52.646 61.789 50.9025 61.789C50.2515 61.789 49.614 61.6775 49.0075 61.4575C46.8745 60.6848 45.4413 58.667 45.4413 56.437C45.4413 56.2188 45.4413 56.1293 47.5305 49.8158C47.953 48.2163 49.2905 47.1025 50.7955 47.1025H76.91C78.056 47.1025 79.118 47.734 79.7498 48.7925C79.778 48.8398 82.5583 55.896 82.5583 56.437C82.5583 58.6673 81.1253 60.685 78.9918 61.4578C78.3868 61.6775 77.749 61.789 77.0978 61.789ZM72.8515 55.9858C73.077 55.9858 73.6293 56.0633 73.8793 56.7803C74.2568 57.8645 75.1765 59.683 77.0975 59.683C77.5033 59.683 77.8993 59.614 78.2738 59.478C79.5305 59.0228 80.3895 57.87 80.4495 56.5808C80.1318 55.639 78.1843 50.4448 77.9188 49.835C77.6708 49.442 77.2963 49.2085 76.91 49.2085H50.796C50.2433 49.2085 49.7363 49.6868 49.5623 50.3723C49.5563 50.3965 49.5488 50.4203 49.5413 50.4438C48.8528 52.5245 47.7535 55.8735 47.5505 56.5618C47.6025 57.8588 48.4638 59.0203 49.726 59.4778C50.1023 59.614 50.498 59.683 50.9035 59.683C52.519 59.683 53.9058 58.5695 54.201 57.0348C54.2963 56.5395 54.73 56.181 55.2345 56.1808C55.2348 56.1808 55.2348 56.1808 55.235 56.1808C55.7395 56.1808 56.1728 56.5388 56.269 57.034C56.5658 58.569 57.9525 59.683 59.5665 59.683C61.1953 59.683 62.584 58.5603 62.8688 57.0133C62.9605 56.514 63.3958 56.1513 63.904 56.151H63.9043C64.4125 56.151 64.8475 56.5133 64.9398 57.0125C65.2255 58.5595 66.614 59.683 68.242 59.683C69.955 59.683 71.7988 58.8563 71.7988 57.0423C71.7973 56.461 72.2695 55.9858 72.8515 55.9858Z" fill="black"/>
<path d="M59.2793 80.7905C57.9788 80.7905 56.7565 80.6947 55.8378 80.5215C55.261 80.4125 53.505 80.0805 53.505 78.7345V67.4317C53.505 65.5155 55.0638 63.9567 56.9798 63.9567H61.578C63.4938 63.9567 65.053 65.5155 65.053 67.4317V78.7345C65.053 80.0807 63.297 80.4128 62.72 80.5215C61.8018 80.6947 60.5795 80.7905 59.2793 80.7905ZM55.611 78.3033C56.1558 78.483 57.46 78.6845 59.279 78.6845C61.098 78.6845 62.4025 78.4828 62.9473 78.3033V67.4317C62.9473 66.6765 62.333 66.0625 61.5783 66.0625H56.98C56.2253 66.0625 55.611 66.6765 55.611 67.4317V78.3033Z" fill="black"/>
<path d="M72.3197 73.2858H69.7968C67.8808 73.2858 66.3217 71.7268 66.3217 69.8108V67.4317C66.3217 65.5155 67.8808 63.9567 69.7968 63.9567H72.3197C74.2357 63.9567 75.7947 65.5155 75.7947 67.4317V69.8108C75.7955 71.7265 74.2362 73.2858 72.3197 73.2858ZM69.797 66.0625C69.0417 66.0625 68.4277 66.6765 68.4277 67.4317V69.8108C68.4277 70.5655 69.0415 71.18 69.797 71.18H72.32C73.0752 71.18 73.6892 70.5655 73.6892 69.8108V67.4317C73.6892 66.6765 73.0755 66.0625 72.32 66.0625H69.797Z" fill="black"/>
<path d="M122.308 62.7295H117.599C116.804 34.48 93.9072 11.6632 65.625 10.9977V5.85C65.625 5.123 65.0363 4.53375 64.3085 4.53375C63.582 4.53375 62.9925 5.12275 62.9925 5.85V10.9992C34.753 11.7115 11.905 34.5105 11.11 62.7295H5.6925C4.96575 62.7295 4.37625 63.319 4.37625 64.0457C4.37625 64.773 4.9655 65.3622 5.6925 65.3622H11.101C11.6863 93.7687 34.617 116.784 62.9922 117.5V122.15C62.9922 122.877 63.5818 123.466 64.3085 123.466C65.0355 123.466 65.6245 122.877 65.6245 122.15V117.501C94.0425 116.832 117.022 93.7997 117.608 65.3622H122.308C123.035 65.3622 123.624 64.773 123.624 64.0457C123.623 63.319 123.035 62.7295 122.308 62.7295ZM114.965 62.7295H91.3665C90.599 48.9357 79.4515 37.8667 65.6247 37.2242V13.6302C92.455 14.294 114.171 35.9315 114.965 62.7295ZM84.4863 65.362H88.7515C88.1865 77.8932 78.1352 87.9955 65.6245 88.6397V84.3287C65.6245 83.6015 65.0358 83.0122 64.3085 83.0122C63.5818 83.0122 62.9922 83.6012 62.9922 84.3287V88.6337C50.5245 87.9447 40.5213 77.862 39.9575 65.362H43.5132C44.24 65.362 44.8295 64.773 44.8295 64.0455C44.8295 63.319 44.2402 62.7292 43.5132 62.7292H39.98C40.7395 50.418 50.6602 40.546 62.9922 39.8645V43.6707C62.9922 44.3975 63.5818 44.987 64.3085 44.987C65.0355 44.987 65.6245 44.3977 65.6245 43.6707V39.8585C77.9995 40.4955 87.9672 50.3872 88.7295 62.729H84.4863C83.7593 62.729 83.1702 63.3185 83.1702 64.0452C83.1705 64.773 83.7593 65.362 84.4863 65.362ZM62.9925 13.6327V37.2277C49.2083 37.9145 38.1082 48.966 37.3425 62.7295H13.7443C14.5378 35.9622 36.205 14.344 62.9925 13.6327ZM13.7335 65.362H37.3237C37.8913 79.3137 49.0728 90.577 62.9925 91.2707V114.866C36.069 114.151 14.3178 92.3172 13.7335 65.362ZM65.625 114.868V91.2742C79.5875 90.6255 90.817 79.3445 91.3857 65.362H114.976C114.391 92.3477 92.5908 114.201 65.625 114.868Z" fill="black"/>
</g>
</g>
<defs>
<filter id="filter0_d_21_161" x="-4" y="0" width="136" height="136" filterUnits="userSpaceOnUse" color-interpolation-filters="sRGB">
<feFlood flood-opacity="0" result="BackgroundImageFix"/>
<feColorMatrix in="SourceAlpha" type="matrix" values="0 0 0 0 0 0 0 0 0 0 0 0 0 0 0 0 0 0 127 0" result="hardAlpha"/>
<feOffset dy="4"/>
<feGaussianBlur stdDeviation="2"/>
<feComposite in2="hardAlpha" operator="out"/>
<feColorMatrix type="matrix" values="0 0 0 0 1 0 0 0 0 1 0 0 0 0 1 0 0 0 1 0"/>
<feBlend mode="normal" in2="BackgroundImageFix" result="effect1_dropShadow_21_161"/>
<feBlend mode="normal" in="SourceGraphic" in2="effect1_dropShadow_21_161" result="shape"/>
</filter>
<filter id="filter1_d_21_161" x="0.376251" y="4.53375" width="127.247" height="126.932" filterUnits="userSpaceOnUse" color-interpolation-filters="sRGB">
<feFlood flood-opacity="0" result="BackgroundImageFix"/>
<feColorMatrix in="SourceAlpha" type="matrix" values="0 0 0 0 0 0 0 0 0 0 0 0 0 0 0 0 0 0 127 0" result="hardAlpha"/>
<feOffset dy="4"/>
<feGaussianBlur stdDeviation="2"/>
<feComposite in2="hardAlpha" operator="out"/>
<feColorMatrix type="matrix" values="0 0 0 0 0.807843 0 0 0 0 0.701961 0 0 0 0 0.701961 0 0 0 1 0"/>
<feBlend mode="normal" in2="BackgroundImageFix" result="effect1_dropShadow_21_161"/>
<feBlend mode="normal" in="SourceGraphic" in2="effect1_dropShadow_21_161" result="shape"/>
</filter>
<clipPath id="clip0_21_161">
<rect width="128" height="128" fill="white"/>
</clipPath>
</defs>
</svg>
