<?xml version="1.0" encoding="utf-8"?>
<!-- Generator: Adobe Illustrator 16.0.3, SVG Export Plug-In . SVG Version: 6.00 Build 0)  -->
<!DOCTYPE svg PUBLIC "-//W3C//DTD SVG 1.1//EN" "http://www.w3.org/Graphics/SVG/1.1/DTD/svg11.dtd">
<svg version="1.1" xmlns="http://www.w3.org/2000/svg" xmlns:xlink="http://www.w3.org/1999/xlink" x="0px" y="0px" width="512px"
	 height="512px" viewBox="0 0 512 512" enable-background="new 0 0 512 512" xml:space="preserve">
<g id="fondo_1_" display="none">
	<g id="fondo" display="inline">
		<rect fill="#FFFFFF" width="512" height="512"/>
	</g>
</g>
<g id="update_1_">
	<g id="update">
		<path fill="#FFFFFF" d="M477.5,251.174h-17.886c-3.022-107.315-90.003-193.991-197.441-196.52V35.099c0-2.762-2.237-5-5-5
			c-2.761,0-5,2.238-5,5v19.561C144.896,57.365,58.1,143.975,55.08,251.174H34.5c-2.762,0-5,2.239-5,5c0,2.763,2.238,5,5,5h20.546
			c2.224,107.913,89.333,195.343,197.126,198.063v17.664c0,2.762,2.239,5,5,5c2.762,0,5-2.238,5-5v-17.66
			c107.953-2.539,195.25-90.037,197.478-198.066H477.5c2.762,0,5-2.238,5-5S480.262,251.174,477.5,251.174z M449.608,251.174
			h-89.646c-2.916-52.4-45.264-94.449-97.789-96.89v-89.63C364.096,67.176,446.591,149.372,449.608,251.174z M333.824,261.174
			h16.202c-2.146,47.604-40.329,85.981-87.854,88.429v-16.377c0-2.763-2.238-5-5-5c-2.761,0-5,2.237-5,5v16.354
			c-47.363-2.617-85.363-40.92-87.505-88.406h13.508c2.761,0,5-2.237,5-5c0-2.761-2.239-5-5-5h-13.423
			c2.885-46.769,40.572-84.271,87.42-86.859v14.459c0,2.761,2.239,5,5,5c2.762,0,5-2.239,5-5v-14.482
			c47.01,2.42,84.876,39.997,87.771,86.882h-16.118c-2.764,0-5,2.239-5,5C328.824,258.937,331.063,261.174,333.824,261.174z
			 M252.173,64.664v89.633c-52.364,2.609-94.53,44.592-97.44,96.877H65.087C68.102,149.489,150.411,67.365,252.173,64.664z
			 M65.046,261.174h89.615c2.155,53.001,44.633,95.788,97.512,98.423v89.636C149.895,446.516,67.266,363.572,65.046,261.174z
			 M262.173,449.24v-89.63c53.04-2.465,95.7-45.319,97.86-98.438h89.615C447.427,363.688,364.611,446.705,262.173,449.24z"/>
		<path fill="#FFFFFF" d="M296.604,252.828c-4.143,0-7.5,3.357-7.5,7.5c0,18.253-14.851,33.104-33.104,33.104
			c-18.253,0-33.104-14.851-33.104-33.104c0-15.892,11.257-29.198,26.215-32.377v1.38c0,3.573,1.906,6.874,5,8.661
			c1.547,0.893,3.273,1.339,5,1.339s3.453-0.447,5.001-1.34l15.814-9.131c3.094-1.787,5-5.088,5-8.661s-1.906-6.874-5-8.661
			l-15.814-9.131c-3.096-1.786-6.907-1.786-10.001,0c-3.094,1.787-5,5.088-5,8.661v1.658c-23.271,3.353-41.215,23.417-41.215,47.603
			c0,26.524,21.579,48.104,48.104,48.104s48.104-21.579,48.104-48.104C304.104,256.186,300.746,252.828,296.604,252.828z"/>
	</g>
</g>
</svg>
